<?xml version="1.0" encoding="utf-8"?>
<!-- Generator: Adobe Illustrator 23.0.1, SVG Export Plug-In . SVG Version: 6.00 Build 0)  -->
<svg version="1.1" id="email" xmlns="http://www.w3.org/2000/svg" xmlns:xlink="http://www.w3.org/1999/xlink" x="0px" y="0px"
	 viewBox="0 0 115.1 86.3" style="enable-background:new 0 0 115.1 86.3;" xml:space="preserve">
<style type="text/css">
	.st0{fill:#9ABD4B;}
</style>
<path id="email_1_" class="st0" d="M100.7,0H14.4C6.4,0,0,6.4,0,14.4v57.5c0,7.9,6.4,14.4,14.4,14.4h86.3c7.9,0,14.4-6.4,14.4-14.4
	V14.4C115.1,6.4,108.6,0,100.7,0z M77,38.4l30.4-26.1c0.2,0.7,0.4,1.3,0.4,2.1v57.5c0,0.5-0.2,0.9-0.3,1.4L77,38.4z M100.7,7.2
	c0.5,0,0.9,0.2,1.3,0.3L57.5,45.6L13,7.5c0.5-0.1,0.9-0.3,1.3-0.3H100.7z M7.5,73.3c-0.1-0.5-0.3-0.9-0.3-1.4V14.4
	c0-0.7,0.2-1.4,0.4-2.1L38,38.4L7.5,73.3z M14.4,79.1c-0.7,0-1.4-0.2-2.1-0.4l31.2-35.6l11.7,10c0.7,0.6,1.5,0.9,2.3,0.9
	c0.8,0,1.7-0.3,2.3-0.9l11.7-10l31.2,35.6c-0.7,0.2-1.3,0.4-2.1,0.4H14.4z"/>
</svg>
