<?xml version="1.0" encoding="utf-8"?>
<!-- Generator: Adobe Illustrator 23.0.1, SVG Export Plug-In . SVG Version: 6.00 Build 0)  -->
<svg version="1.1" id="fly_x5F_rod" xmlns="http://www.w3.org/2000/svg" xmlns:xlink="http://www.w3.org/1999/xlink" x="0px"
	 y="0px" viewBox="0 0 117.8 98.5" style="enable-background:new 0 0 117.8 98.5;" xml:space="preserve">
<style type="text/css">
	.st0{fill:#5D7132;}
	.st1{fill:#9ABD4B;}
	.st2{fill:#434345;}
</style>
<g id="all">
	<path id="hook" class="st0" d="M106.9,82.6l-1.8,0.3l0.7,5.3c0.3,1.9,2.1,3.3,4,3c1.9-0.3,3.3-2.1,3-4l-2.6-19.1l2.9-0.4l2.6,19.1
		c0.5,3.5-2,6.8-5.5,7.3c-3.5,0.5-6.8-2-7.3-5.5l-1.4-10.3L106.9,82.6z"/>
	
		<rect id="line_x5F_hook" x="106.2" y="4.9" transform="matrix(0.9905 -0.1374 0.1374 0.9905 -3.8918 15.0585)" class="st0" width="1.8" height="61.7"/>
	<path id="circle" class="st1" d="M110.6,60c-3.4,0.5-5.9,3.7-5.4,7.1c0.5,3.5,3.7,5.9,7.1,5.4c3.5-0.5,5.9-3.7,5.4-7.1
		C117.3,61.9,114.1,59.5,110.6,60z"/>
	<g id="hold_1_">
		<path class="st0" d="M5.4,84.3c0.1,0.9,0.9,1.5,1.8,1.4l5.7-0.8c0.9-0.1,1.5-0.9,1.4-1.8l0,0c-0.1-0.9-0.9-1.5-1.8-1.4l-5.7,0.8
			C5.9,82.6,5.3,83.4,5.4,84.3L5.4,84.3z"/>
		<path class="st0" d="M7.2,97.1C7.3,98,8.1,98.6,9,98.5l5.7-0.8c0.9-0.1,1.5-0.9,1.4-1.8l0,0c-0.1-0.9-0.9-1.5-1.8-1.4l-5.7,0.8
			C7.7,95.4,7,96.2,7.2,97.1L7.2,97.1z"/>
		<rect x="7.8" y="85.2" transform="matrix(0.9905 -0.1374 0.1374 0.9905 -12.2695 2.3248)" class="st0" width="5.7" height="9.7"/>
	</g>
	<g id="line">
		<path class="st1" d="M9.8,68.2c10.4-2.2,18.1-8.5,21.7-17.8c2.9-7.4,2.6-15.7-0.7-21.9c8,2.7,16.6,1.1,23.4-4.7
			c4.7-3.9,7.7-9.2,8.4-14c3.2,4.6,9.1,7.5,16.4,7.8c9.2,0.5,20.9-3.3,24.7-12.9L102,4c-3.5,8.7-14.2,12.1-22.8,11.7
			c-6.7-0.4-14.7-3.4-16.8-10.9l-1.8,0.5c1.4,5.1-1.6,12.1-7.5,17c-9.2,7.7-17.8,6.3-27.4,1.7c1.5,2.1,9.7,11.2,4,25.6
			c-1.9,5-7.2,13.8-20.3,16.6L9.8,68.2z"/>
	</g>
	<g>
		<path class="st1" d="M6.6,79.5l5.1-0.7C8.3,31.6,55.1-12.7,105.9,7l0.6-1.3C50.3-17,2.1,32,6.6,79.5z"/>
	</g>
	<path id="spin1" class="st0" d="M0.1,68.6c0.7,5.2,5.5,8.9,10.8,8.1C16.1,76,19.7,71.2,19,66c-0.7-5.2-5.5-8.9-10.8-8.1
		C3,58.5-0.6,63.4,0.1,68.6z"/>
	<path id="spin2" class="st1" d="M5.5,67.8c0.3,2.2,2.4,3.8,4.6,3.5c2.2-0.3,3.8-2.4,3.5-4.6c-0.3-2.2-2.4-3.8-4.6-3.5
		C6.7,63.5,5.2,65.6,5.5,67.8z"/>
	<path id="spin3" class="st2" d="M7.6,67.5c0.2,1.1,1.2,1.8,2.2,1.7c1.1-0.2,1.8-1.2,1.7-2.2c-0.2-1.1-1.2-1.8-2.2-1.7
		C8.2,65.4,7.4,66.4,7.6,67.5z"/>
	
		<rect id="hold1" x="6.8" y="79.1" transform="matrix(0.9905 -0.1374 0.1374 0.9905 -10.9808 2.0547)" class="st0" width="5.1" height="2.9"/>
</g>
</svg>
