<?xml version="1.0" encoding="utf-8"?>
<!-- Generator: Adobe Illustrator 23.0.1, SVG Export Plug-In . SVG Version: 6.00 Build 0)  -->
<svg version="1.1" id="members" xmlns="http://www.w3.org/2000/svg" xmlns:xlink="http://www.w3.org/1999/xlink" x="0px" y="0px"
	 viewBox="0 0 75 51.1" style="enable-background:new 0 0 75 51.1;" xml:space="preserve">
<style type="text/css">
	.st0{fill:#9ABD4B;}
	.st1{fill:#5D7132;}
</style>
<path id="rectangle" class="st0" d="M68.1,51.1c3.7,0,6.7-3,6.8-6.7L75,7c0-3.7-3-6.8-6.7-6.8L6.9,0c0,0,0,0,0,0
	C3.2,0,0.1,3,0.1,6.7L0,44.1c0,1.8,0.7,3.5,2,4.8c1.3,1.3,3,2,4.8,2L68.1,51.1C68.1,51.1,68.1,51.1,68.1,51.1z M9.3,48.1H6.9v0H6.7
	c-1,0-2-0.4-2.8-1.2c-0.7-0.7-1.1-1.7-1.1-2.8L3,6.7c0-2.2,1.8-3.9,3.9-3.9c0,0,0,0,0,0L68.3,3c2.2,0,3.9,1.8,3.9,3.9L72,44.3
	c0,2.2-1.8,3.9-3.9,3.9c0,0,0,0,0,0L9.3,48.1L9.3,48.1z"/>
<path id="id" class="st1" d="M64.6,5.9H50.4c-0.4,0-0.7,0.3-0.7,0.7v18.9c0,0.4,0.3,0.7,0.7,0.7h14.2c0.4,0,0.7-0.3,0.7-0.7V6.6
	C65.4,6.2,65,5.9,64.6,5.9z M63.9,24.8H51.1V7.3h12.8V24.8z"/>
<path id="line1" class="st1" d="M11.6,31.6h22.1c0.8,0,1.4-0.6,1.4-1.4c0-0.8-0.6-1.4-1.4-1.4H11.6c-0.8,0-1.4,0.6-1.4,1.4
	C10.2,31,10.9,31.6,11.6,31.6z"/>
<path id="line2" class="st1" d="M44,36.9H11.6c-0.8,0-1.4,0.6-1.4,1.4c0,0.8,0.6,1.4,1.4,1.4H44c0.8,0,1.4-0.6,1.4-1.4
	C45.4,37.6,44.8,36.9,44,36.9z"/>
</svg>
