<?xml version="1.0" encoding="utf-8"?>
<!-- Generator: Adobe Illustrator 23.0.1, SVG Export Plug-In . SVG Version: 6.00 Build 0)  -->
<svg version="1.1" id="menu" xmlns="http://www.w3.org/2000/svg" xmlns:xlink="http://www.w3.org/1999/xlink" x="0px" y="0px"
	 viewBox="0 0 134.1 67.9" style="enable-background:new 0 0 134.1 67.9;" xml:space="preserve">
<style type="text/css">
	.st0{fill:#5E7132;}
</style>
<path id="bottom" class="st0" d="M128.4,11.4H5.7C2.6,11.4,0,8.8,0,5.7v0C0,2.6,2.6,0,5.7,0h122.6c3.1,0,5.7,2.6,5.7,5.7v0
	C134.1,8.8,131.5,11.4,128.4,11.4z"/>
<path id="center" class="st0" d="M128.4,39.6H5.7c-3.1,0-5.7-2.6-5.7-5.7v0c0-3.1,2.6-5.7,5.7-5.7h122.6c3.1,0,5.7,2.6,5.7,5.7v0
	C134.1,37.1,131.5,39.6,128.4,39.6z"/>
<path id="top" class="st0" d="M128.4,67.9H5.7c-3.1,0-5.7-2.6-5.7-5.7v0c0-3.1,2.6-5.7,5.7-5.7h122.6c3.1,0,5.7,2.6,5.7,5.7v0
	C134.1,65.3,131.5,67.9,128.4,67.9z"/>
</svg>
