<?xml version="1.0" encoding="utf-8"?>
<!-- Generator: Adobe Illustrator 23.0.1, SVG Export Plug-In . SVG Version: 6.00 Build 0)  -->
<svg version="1.1" id="pin" xmlns="http://www.w3.org/2000/svg" xmlns:xlink="http://www.w3.org/1999/xlink" x="0px" y="0px"
	 viewBox="0 0 58.9 98" style="enable-background:new 0 0 58.9 98;" xml:space="preserve">
<style type="text/css">
	.st0{fill:#9ABD4B;}
	.st1{fill:#5D7132;}
</style>
<g id="combination">
	<path id="pin_1_" class="st0" d="M58.1,36.4c0.6-2.3,0.8-4.6,0.8-7C58.9,13.2,45.7,0,29.4,0C13.2,0,0,13.2,0,29.4
		c0,2.3,0.3,4.7,0.8,7C1.6,41.2,2.7,45,4,47.9c2.9,6,15.1,26.1,20.7,35.3c-7.6,1-11.1,4.2-11.1,7.3c0,3.6,4.9,7.6,15.8,7.6
		s15.8-3.9,15.8-7.6c0-3.1-3.5-6.3-11.1-7.3C39.8,74,52,53.9,54.8,47.9C56.2,45,57.3,41.2,58.1,36.4z M40.7,90.4
		c-0.3,0.9-4.1,3-11.2,3c-7.2,0-11-2.2-11.3-3c0.2-0.8,3.3-2.6,9.2-3c0.1,0.1,0.1,0.2,0.1,0.2c0.4,0.7,1.1,1.1,1.9,1.1
		s1.5-0.4,1.9-1.1c0,0,0.1-0.1,0.1-0.2C37.3,87.8,40.4,89.7,40.7,90.4z M8.2,45.9C7,43.5,6,39.9,5.3,35.6c0-0.1,0-0.1,0-0.2
		c-0.5-2-0.7-4-0.7-6c0-13.7,11.2-24.9,24.9-24.9s24.9,11.2,24.9,24.9c0,2-0.2,4-0.7,6c0,0.1,0,0.1,0,0.2c-0.7,4.3-1.7,7.9-2.8,10.3
		C48,52,34.6,73.9,29.6,82.2C24.4,73.9,11.1,52.1,8.2,45.9z"/>
	<path id="circle" class="st1" d="M29.4,12.8c-8.7,0-15.8,7.1-15.8,15.8s7.1,15.8,15.8,15.8s15.8-7.1,15.8-15.8
		C45.3,19.9,38.2,12.8,29.4,12.8z M18.2,28.6c0-6.2,5-11.3,11.3-11.3c6.2,0,11.3,5,11.3,11.3s-5,11.3-11.3,11.3
		C23.2,39.9,18.2,34.8,18.2,28.6z"/>
</g>
</svg>
