<?xml version="1.0" encoding="utf-8"?>
<!-- Generator: Adobe Illustrator 23.0.1, SVG Export Plug-In . SVG Version: 6.00 Build 0)  -->
<svg version="1.1" id="people" xmlns="http://www.w3.org/2000/svg" xmlns:xlink="http://www.w3.org/1999/xlink" x="0px" y="0px"
	 viewBox="0 0 116 74" style="enable-background:new 0 0 116 74;" xml:space="preserve">
<style type="text/css">
	.st0{fill:#5D7132;}
	.st1{fill:#9ABD4B;}
</style>
<g id="combination">
	<path class="st0" d="M66.3,51.5c4-2.7,6.7-7.3,6.7-12.5c0-8.3-6.7-15-15-15s-15,6.7-15,15c0,5.2,2.7,9.8,6.7,12.5
		C40.6,54.9,34,63.7,34,74h4c0-11,9-20,20-20s20,9,20,20h4C82,63.7,75.4,54.9,66.3,51.5z M58,50c-6.1,0-11-4.9-11-11s4.9-11,11-11
		s11,4.9,11,11S64.1,50,58,50z"/>
	<path class="st0" d="M86.3,41.5c4-2.7,6.7-7.3,6.7-12.5c0-8.3-6.7-15-15-15c-4,0-7.6,1.6-10.3,4.2c-1,1-1.9,2-2.6,3.2
		c1.2,0.5,2.4,1.1,3.5,1.9c0.7-1.2,1.6-2.2,2.7-3c1.9-1.4,4.2-2.3,6.7-2.3c6.1,0,11,4.9,11,11c0,5-3.4,9.3-8,10.6
		c-1,0.2-2,0.4-3,0.4c-0.4,0-0.7,0-1-0.1c-0.1,1.4-0.3,2.8-0.7,4.2c0.6,0,1.1-0.1,1.7-0.1c0.8,0,1.6,0.1,2.4,0.2
		C90.3,45.3,98,53.8,98,64h4C102,53.7,95.4,44.9,86.3,41.5z"/>
	<path class="st0" d="M38,44c0.6,0,1.1,0.1,1.7,0.1c-0.4-1.3-0.6-2.7-0.7-4.2c-0.3,0-0.7,0.1-1,0.1c-1,0-2-0.2-3-0.4
		c-4.6-1.3-8-5.5-8-10.6c0-6.1,4.9-11,11-11c2.5,0,4.8,0.9,6.7,2.3c1.1,0.8,2,1.8,2.7,3c1.1-0.7,2.3-1.4,3.5-1.9
		c-0.7-1.2-1.6-2.3-2.6-3.2C45.6,15.6,42,14,38,14c-8.3,0-15,6.7-15,15c0,5.2,2.7,9.8,6.7,12.5C20.6,44.9,14,53.7,14,64h4
		c0-10.2,7.7-18.7,17.6-19.8C36.4,44.1,37.2,44,38,44z"/>
	<path class="st1" d="M100.3,27.5c4-2.7,6.7-7.3,6.7-12.5c0-8.3-6.7-15-15-15c-4,0-7.6,1.6-10.3,4.2c-1,1-1.9,2-2.6,3.2
		c1.2,0.5,2.4,1.1,3.5,1.9c0.7-1.2,1.6-2.2,2.7-3C87.2,4.9,89.5,4,92,4c6.1,0,11,4.9,11,11c0,4.4-2.6,8.2-6.4,10
		c0.2,0.9,0.3,1.9,0.3,2.9c0,0.9-0.1,1.8-0.2,2.7c8.8,2.1,15.4,10,15.4,19.4h4C116,39.7,109.4,30.9,100.3,27.5z"/>
	<path class="st1" d="M19.2,27.9c0-1,0.1-2,0.3-2.9c-3.8-1.7-6.4-5.6-6.4-10c0-6.1,4.9-11,11-11c2.5,0,4.8,0.9,6.7,2.3
		c1.1,0.8,2,1.8,2.7,3c1.1-0.7,2.3-1.4,3.5-1.9c-0.7-1.2-1.6-2.3-2.6-3.2C31.6,1.6,28,0,24,0C15.7,0,9,6.7,9,15
		c0,5.2,2.7,9.8,6.7,12.5C6.6,30.9,0,39.7,0,50h4c0-9.4,6.6-17.3,15.4-19.4C19.3,29.7,19.2,28.8,19.2,27.9z"/>
	<path class="st1" d="M58,4c5.3,0,9.8,3.9,10.8,8.9c2.2-1.3,3.8-1.6,3.8-1.6C70.9,4.8,65,0,58,0S45.1,4.8,43.5,11.3
		c0,0,1.6,0.3,3.8,1.6C48.2,7.9,52.7,4,58,4z"/>
</g>
</svg>
