<?xml version="1.0" encoding="utf-8"?>
<!-- Generator: Adobe Illustrator 23.0.1, SVG Export Plug-In . SVG Version: 6.00 Build 0)  -->
<svg version="1.1" id="registration_x5F_icon" xmlns="http://www.w3.org/2000/svg" xmlns:xlink="http://www.w3.org/1999/xlink"
	 x="0px" y="0px" viewBox="0 0 92.3 98" style="enable-background:new 0 0 92.3 98;" xml:space="preserve">
<style type="text/css">
	.st0{fill-rule:evenodd;clip-rule:evenodd;fill:#5D7132;}
	.st1{fill-rule:evenodd;clip-rule:evenodd;fill:#9ABD4B;}
</style>
<polygon id="line1" class="st0" points="14.5,13.3 14.5,17 64.2,17 64.2,13.3 14.5,13.3 "/>
<polygon id="line2" class="st0" points="14.5,22.2 14.5,25.9 64.2,25.9 64.2,22.2 14.5,22.2 "/>
<polygon id="line3" class="st0" points="14.5,31.1 14.5,34.8 64.2,34.8 64.2,31.1 14.5,31.1 "/>
<polygon id="line4" class="st0" points="14.5,40 14.5,43.6 56.4,43.6 56.4,40 14.5,40 "/>
<polygon id="line5" class="st0" points="14.5,48.8 14.5,52.5 42.4,52.5 42.4,48.8 14.5,48.8 "/>
<polygon id="signature" class="st0" points="49,82.7 49,86.8 74.1,86.8 74.1,82.7 49,82.7 "/>
<polygon id="pen1" class="st0" points="86.8,49.1 65.2,70.7 70.7,76.2 92.3,54.6 86.8,49.1 "/>
<polygon id="pen2" class="st0" points="62.2,79.2 66.2,77.9 70.3,76.7 67.5,73.9 64.7,71.2 63.5,75.2 62.2,79.2 "/>
<polygon id="paper" class="st1" points="2.2,0 81.4,0 83.5,0 83.5,2.2 83.5,51.2 79.2,55.5 79.2,4.3 4.3,4.3 4.3,93.7 79.2,93.7 
	79.2,69 83.5,64.7 83.5,95.8 83.5,98 81.4,98 2.2,98 0,98 0,95.8 0,2.2 0,0 2.2,0 "/>
</svg>
