<?xml version="1.0" encoding="utf-8"?>
<!-- Generator: Adobe Illustrator 23.0.1, SVG Export Plug-In . SVG Version: 6.00 Build 0)  -->
<svg version="1.1" id="logo" xmlns="http://www.w3.org/2000/svg" xmlns:xlink="http://www.w3.org/1999/xlink" x="0px" y="0px"
	 viewBox="0 0 202.6 179.23" style="enable-background:new 0 0 202.6 179.23;" xml:space="preserve">
<style type="text/css">
	.st0{fill:#FFFFFF;stroke:#9ABD4B;stroke-width:4.4111;stroke-miterlimit:10;}
	.st1{fill:#5D7132;}
	.st2{fill:#FFFFFF;stroke:#FFFFFF;stroke-width:6;stroke-linejoin:round;stroke-miterlimit:10;}
	.st3{fill:#676565;}
	.st4{fill:#D8AE58;}
	.st5{fill:#FFFFFF;}
	.st6{fill:#FFFFFF;stroke:#FFFFFF;stroke-width:6;stroke-miterlimit:10;}
	.st7{fill:none;}
	.st8{fill:#666666;}
	.st9{fill:none;stroke:#666666;stroke-width:2;stroke-linecap:round;stroke-linejoin:round;stroke-miterlimit:10;}
	.st10{fill:none;stroke:#666666;stroke-width:2;stroke-miterlimit:10;}
	.st11{fill:none;stroke:#666666;stroke-width:2.1;stroke-miterlimit:10;}
	.st12{fill:none;stroke:#D32027;stroke-width:2;stroke-linejoin:round;stroke-miterlimit:10;}
	.st13{fill:none;stroke:#D32027;stroke-linejoin:round;stroke-miterlimit:10;}
	.st14{fill:none;stroke:#D32027;stroke-width:2;stroke-linecap:round;stroke-linejoin:round;stroke-miterlimit:10;}
	.st15{fill:none;stroke:#D32027;stroke-miterlimit:10;}
</style>
<g id="thames_x5F_river_x5F_anglers_x5F_association">
	<circle id="XMLID_23_" class="st0" cx="104.66" cy="78.71" r="76.51"/>
	<g id="XMLID_222_">
		<path id="XMLID_225_" class="st1" d="M80.46,63.85h2.24l-8.47-17.72l-8.47,17.72H68l-2.24,4.68H68l-2.24,4.68h7.41v4.06
			c0,0.58,0.47,1.06,1.06,1.06l0,0c0.58,0,1.06-0.47,1.06-1.06v-4.06h7.41l-2.24-4.68h2.24L80.46,63.85z"/>
		<path id="XMLID_224_" class="st1" d="M75.29,73.22h7.41l-2.24-4.68h2.24l-2.24-4.68h2.24l-8.47-17.72v32.2l0,0
			c0.58,0,1.06-0.47,1.06-1.06V73.22z"/>
	</g>
	<path id="XMLID_43_" class="st2" d="M158.34,96.13c0,0-10.3-1.19-14.22,7.61c0,0-1.49,6.15-5.46,7.98c0,0,12.55-3.47,16.67-6.35
		c0,0,4.59-5.24,6.35-6.53"/>
	<g id="XMLID_217_">
		<path id="XMLID_220_" class="st1" d="M166.79,59.62h3.3l-12.5-26.15l-12.5,26.15h3.3l-3.3,6.91h3.3l-3.3,6.91h10.94v5.98
			c0,0.86,0.7,1.56,1.56,1.56l0,0c0.86,0,1.56-0.7,1.56-1.56v-5.98h10.94l-3.3-6.91h3.3L166.79,59.62z"/>
		<path id="XMLID_219_" class="st1" d="M159.15,73.45h10.94l-3.3-6.91h3.3l-3.3-6.91h3.3l-12.5-26.15V81l0,0
			c0.86,0,1.56-0.7,1.56-1.56V73.45z"/>
	</g>
	<g id="XMLID_212_">
		<path id="XMLID_216_" class="st1" d="M139.71,61.58h1.93l-7.3-15.28l-7.3,15.28h1.93l-1.93,4.04h1.93l-1.93,4.04h6.39v3.5
			c0,0.5,0.41,0.91,0.91,0.91l0,0c0.5,0,0.91-0.41,0.91-0.91v-3.5h6.39l-1.93-4.04h1.93L139.71,61.58z"/>
		<path id="XMLID_215_" class="st1" d="M135.25,69.66h6.39l-1.93-4.04h1.93l-1.93-4.04h1.93l-7.3-15.28v27.76l0,0
			c0.5,0,0.91-0.41,0.91-0.91V69.66z"/>
	</g>
	<g id="XMLID_209_">
		<path id="XMLID_211_" class="st1" d="M57.36,60.51h2.83l-10.7-21.62l-10.7,21.62h2.83l-2.83,5.72h2.83l-2.83,5.72h9.36v4.95
			c0,0.71,0.6,1.29,1.34,1.29l0,0c0.74,0,1.34-0.58,1.34-1.29v-4.95h9.36l-2.83-5.72h2.83L57.36,60.51z"/>
		<path id="XMLID_210_" class="st1" d="M50.83,71.94h9.36l-2.83-5.72h2.83l-2.83-5.72h2.83l-10.7-21.62v39.29l0,0
			c0.74,0,1.34-0.58,1.34-1.29V71.94z"/>
	</g>
	<path id="XMLID_206_" class="st3" d="M70.27,80.57"/>
	<g id="XMLID_134_">
		<path id="XMLID_135_" class="st3" d="M27.51,119.69l-0.92-1.89l-11.73,5.71l-0.89-1.83l11.73-5.71l-0.91-1.87l1.93-0.94l2.72,5.59
			L27.51,119.69z"/>
		<path id="XMLID_149_" class="st3" d="M33.06,124.9l-13.06,7.77l-1.04-1.75l6.14-3.65l-1.1-1.85l-6.14,3.65l-1.04-1.75l13.06-7.77
			l1.04,1.75l-5.07,3.02l1.1,1.85l5.07-3.02L33.06,124.9z"/>
		<path id="XMLID_153_" class="st3" d="M26.6,135.96l-1.15-1.6l-3.1,1.75l-1.12-1.56l13.7-6.96l1.19,1.65l-10.96,10.77l-1.19-1.65
			L26.6,135.96z M28.19,134.42l4.06-3.68l-0.03-0.04l-4.79,2.66L28.19,134.42z"/>
		<path id="XMLID_156_" class="st3" d="M43.36,137.94l-11.42,10.02l-1.34-1.53l7.03-6.17l-7.91,5.16l-0.92-1.05l6.17-7.15
			l-0.02-0.02l-7.03,6.17l-1.34-1.53l11.42-10.02l1.81,2.07l-5.98,6.97l0.02,0.02l7.71-5L43.36,137.94z"/>
		<path id="XMLID_180_" class="st3" d="M44.25,141.77l-2.57,2.7l1.5,1.43l-1.5,1.57l-1.5-1.43l-3.41,3.58l2.25,2.15l-1.5,1.57
			l-3.72-3.55l10.48-11l3.56,3.39l-1.5,1.57L44.25,141.77z"/>
		<path id="XMLID_182_" class="st3" d="M48.9,148.61l0.4-0.49c0.67-0.82,0.71-1.54,0.34-1.85c-0.4-0.33-1.02-0.19-1.46,0.35
			c-0.41,0.5-0.65,0.95-0.74,1.81l-0.39,3.69c-0.15,1.47-0.28,2.43-1.42,3.83c-1.39,1.7-3.23,1.77-4.49,0.74
			c-1.27-1.04-1.51-2.83-0.14-4.51l1-1.23l1.59,1.3l-0.89,1.09c-0.59,0.72-0.58,1.32-0.17,1.65c0.39,0.32,1.02,0.19,1.59-0.5
			c0.51-0.62,0.7-1.25,0.79-2.02l0.16-2.87c0.24-1.99,0.19-2.65,1.51-4.26c1.3-1.6,3.1-1.84,4.45-0.74
			c1.34,1.09,1.42,2.92,0.14,4.49l-0.67,0.82L48.9,148.61z"/>
		<path id="XMLID_199_" class="st3" d="M52.32,164.36l1.64-6.21c-0.23-0.15-0.48-0.31-0.55-0.35l-3.28,5.17l-1.71-1.08l8.14-12.83
			l2.87,1.82c1.65,1.05,1.41,3.16,0.11,5.21c-1.21,1.91-2.61,2.74-3.78,2.77l-1.66,6.63L52.32,164.36z M54.64,155.86l0.55,0.35
			c1.11,0.71,1.53,0.71,2.72-1.15c0.65-1.03,0.98-1.95,0.31-2.38l-1.11-0.71L54.64,155.86z"/>
		<path id="XMLID_203_" class="st3" d="M57.5,167.32l-1.79-0.98L63,153.02l1.79,0.98L57.5,167.32z"/>
		<path id="XMLID_218_" class="st3" d="M63.54,170.28l-1.97-0.91l4.08-14.85l1.98,0.91l-3.4,10.81l0.03,0.01l6.06-9.59l1.97,0.91
			L63.54,170.28z"/>
		<path id="XMLID_227_" class="st3" d="M74.34,160.63l-1.28,3.51l1.94,0.71l-0.74,2.04l-1.94-0.71l-1.7,4.65l2.92,1.07l-0.74,2.04
			l-4.83-1.76l5.21-14.27l4.62,1.68l-0.74,2.04L74.34,160.63z"/>
		<path id="XMLID_229_" class="st3" d="M79.31,175.83l-0.24-6.41c-0.27-0.07-0.55-0.15-0.63-0.17l-1.63,5.9l-1.95-0.54l4.05-14.64
			l3.28,0.9c1.88,0.52,2.27,2.61,1.62,4.95c-0.6,2.18-1.69,3.38-2.81,3.75l0.34,6.83L79.31,175.83z M79.06,167.03l0.63,0.17
			c1.27,0.35,1.67,0.24,2.26-1.9c0.32-1.17,0.37-2.15-0.39-2.36l-1.27-0.35L79.06,167.03z"/>
		<path id="XMLID_232_" class="st3" d="M91.22,174.59l-1.95-0.29l-0.91,3.44l-1.9-0.28l4.55-14.68l2.01,0.3l0.09,15.37l-2.01-0.3
			L91.22,174.59z M91.22,172.38l0.19-5.48l-0.05-0.01l-1.43,5.29L91.22,172.38z"/>
		<path id="XMLID_235_" class="st3" d="M102.38,163.91l-1.05,15.16l-2.03-0.14l-1.39-8.82l-0.03,0l-0.6,8.68l-2.03-0.14l1.05-15.16
			l2.14,0.15l1.3,8.53l0.03,0l0.58-8.4L102.38,163.91z"/>
		<path id="XMLID_237_" class="st3" d="M107.68,168.23l-0.03-1.19c-0.01-0.46-0.37-1.23-0.95-1.22c-0.72,0.02-1.01,0.8-1,1.26
			l0.19,8.76c0.01,0.46,0.34,1.23,1.05,1.21c0.76-0.02,1.14-0.74,1.11-1.98l-0.05-2.32l-1.14,0.03l-0.05-2.17l2.96-0.07l0.1,4.69
			c0.04,2.06-0.84,3.95-2.89,3.99c-2.26,0.05-3.12-1.8-3.15-3.32l-0.19-8.79c-0.03-1.54,0.74-3.42,3-3.47
			c2.05-0.04,3.02,1.8,3.05,3.34l0.03,1.19L107.68,168.23z"/>
		<path id="XMLID_239_" class="st3" d="M116.85,176.17l0.21,2.16l-4.68,0.46l-1.48-15.12l2.03-0.2l1.27,12.96L116.85,176.17z"/>
		<path id="XMLID_241_" class="st3" d="M118.92,164.88l0.62,3.68l2.04-0.34l0.36,2.14l-2.04,0.34l0.82,4.88l3.07-0.52l0.36,2.14
			l-5.07,0.86l-2.53-14.98l4.85-0.82l0.36,2.14L118.92,164.88z"/>
		<path id="XMLID_243_" class="st3" d="M130.77,175.63l-3.38-5.46c-0.27,0.07-0.55,0.14-0.63,0.16l1.5,5.93l-1.96,0.5l-3.72-14.72
			l3.3-0.83c1.89-0.48,3.26,1.14,3.86,3.5c0.55,2.19,0.2,3.78-0.59,4.65l3.67,5.76L130.77,175.63z M126.2,168.11l0.63-0.16
			c1.28-0.32,1.57-0.62,1.03-2.77c-0.3-1.18-0.74-2.05-1.51-1.85l-1.28,0.32L126.2,168.11z"/>
		<path id="XMLID_246_" class="st3" d="M134.62,162.97l-0.2-0.59c-0.35-1.01-0.94-1.42-1.4-1.26c-0.49,0.17-0.7,0.77-0.47,1.43
			c0.21,0.62,0.47,1.06,1.15,1.58l2.94,2.27c1.17,0.9,1.92,1.52,2.51,3.22c0.72,2.07-0.19,3.67-1.73,4.2
			c-1.55,0.54-3.2-0.2-3.91-2.25l-0.52-1.5l1.94-0.67l0.46,1.33c0.3,0.88,0.82,1.19,1.31,1.02c0.48-0.17,0.7-0.77,0.41-1.61
			c-0.26-0.76-0.69-1.25-1.3-1.73l-2.36-1.64c-1.57-1.25-2.15-1.55-2.83-3.52c-0.67-1.95,0.06-3.6,1.71-4.17
			c1.63-0.56,3.23,0.33,3.89,2.24l0.35,1L134.62,162.97z"/>
		<path id="XMLID_248_" class="st3" d="M147.65,165.46l-1.77,0.86l1.19,3.35l-1.73,0.84l-4.52-14.69l1.83-0.89l8.74,12.65
			l-1.83,0.89L147.65,165.46z M146.4,163.63l-2.94-4.63l-0.04,0.02l1.81,5.18L146.4,163.63z"/>
		<path id="XMLID_251_" class="st3" d="M150.76,155.31l-0.32-0.54c-0.54-0.92-1.2-1.21-1.62-0.96c-0.45,0.27-0.53,0.89-0.18,1.49
			c0.33,0.56,0.67,0.94,1.44,1.32l3.33,1.64c1.33,0.65,2.18,1.11,3.1,2.66c1.11,1.89,0.54,3.64-0.86,4.46
			c-1.41,0.84-3.18,0.44-4.28-1.43l-0.81-1.36l1.77-1.04l0.72,1.22c0.47,0.8,1.04,1,1.49,0.73c0.43-0.26,0.53-0.89,0.08-1.66
			c-0.41-0.69-0.93-1.09-1.62-1.44l-2.64-1.14c-1.79-0.91-2.42-1.09-3.48-2.89c-1.05-1.77-0.66-3.54,0.84-4.43
			c1.48-0.88,3.23-0.32,4.26,1.42l0.54,0.92L150.76,155.31z"/>
		<path id="XMLID_253_" class="st3" d="M156.72,151.38l-0.36-0.51c-0.61-0.87-1.3-1.1-1.7-0.82c-0.43,0.3-0.46,0.93-0.06,1.5
			c0.37,0.53,0.74,0.88,1.54,1.2l3.45,1.37c1.38,0.54,2.27,0.93,3.3,2.4c1.26,1.79,0.83,3.58-0.5,4.52
			c-1.35,0.95-3.14,0.69-4.38-1.08l-0.91-1.3l1.68-1.18l0.81,1.15c0.54,0.76,1.12,0.91,1.54,0.61c0.41-0.29,0.46-0.93-0.05-1.66
			c-0.46-0.66-1.01-1.01-1.73-1.3l-2.72-0.93c-1.85-0.77-2.5-0.89-3.7-2.6c-1.19-1.69-0.94-3.48,0.49-4.48
			c1.41-0.99,3.2-0.58,4.36,1.07l0.61,0.87L156.72,151.38z"/>
		<path id="XMLID_255_" class="st3" d="M163.45,144.69l5.61,6.74c1,1.2,1.49,3.22-0.07,4.52c-1.72,1.44-3.53,0.51-4.53-0.69
			l-5.61-6.74c-1-1.2-1.55-3.11,0.17-4.55C160.59,142.67,162.45,143.49,163.45,144.69z M161.9,146c-0.29-0.35-1.07-0.78-1.52-0.4
			c-0.55,0.46-0.25,1.28,0.02,1.6l5.6,6.72c0.32,0.38,1.06,0.81,1.61,0.36c0.45-0.38,0.16-1.23-0.13-1.58L161.9,146z"/>
		<path id="XMLID_259_" class="st3" d="M168.2,141.8l-0.84-0.85c-0.32-0.32-1.11-0.64-1.53-0.23c-0.51,0.5-0.18,1.28,0.14,1.6
			l6.15,6.25c0.32,0.32,1.09,0.66,1.6,0.16c0.42-0.41,0.11-1.21-0.21-1.53l-0.84-0.85l1.46-1.44l0.84,0.85
			c1.08,1.1,1.73,3.08,0.27,4.52c-1.6,1.57-3.51,0.84-4.58-0.24l-6.17-6.26c-1.08-1.1-1.79-3.02-0.19-4.6
			c1.46-1.44,3.43-0.76,4.51,0.34l0.84,0.85L168.2,141.8z"/>
		<path id="XMLID_261_" class="st3" d="M180.03,144.92l-1.36,1.52l-11.31-10.14l1.36-1.52L180.03,144.92z"/>
		<path id="XMLID_263_" class="st3" d="M181.27,137.86l-1.22,1.55l2.54,2.5l-1.19,1.51l-10.48-11.24l1.26-1.6l13.38,7.56l-1.26,1.6
			L181.27,137.86z M179.35,136.76l-4.66-2.89l-0.03,0.04l3.88,3.87L179.35,136.76z"/>
		<path id="XMLID_266_" class="st3" d="M178.4,125.51l-1.19,1.73l10.75,7.38l-1.15,1.68l-10.75-7.38l-1.18,1.72l-1.77-1.22
			l3.52-5.13L178.4,125.51z"/>
		<path id="XMLID_268_" class="st3" d="M191.23,129.42l-1.05,1.75l-13.03-7.82l1.05-1.74L191.23,129.42z"/>
		<path id="XMLID_270_" class="st3" d="M184.49,116.62l7.79,4.02c1.39,0.72,2.63,2.38,1.69,4.19c-1.03,1.99-3.06,1.85-4.44,1.13
			l-7.79-4.02c-1.39-0.72-2.64-2.26-1.61-4.26C181.07,115.88,183.11,115.9,184.49,116.62z M183.58,118.44
			c-0.4-0.21-1.29-0.3-1.56,0.22c-0.33,0.64,0.27,1.27,0.64,1.46l7.77,4.01c0.44,0.23,1.29,0.34,1.62-0.3
			c0.27-0.52-0.33-1.2-0.74-1.41L183.58,118.44z"/>
		<path id="XMLID_273_" class="st3" d="M184.5,108.41l14.05,5.79l-0.78,1.88l-8.81-1.47l-0.01,0.03l8.05,3.32l-0.78,1.88
			l-14.05-5.79l0.82-1.99l8.51,1.47l0.01-0.03l-7.79-3.21L184.5,108.41z"/>
	</g>
	<g id="XMLID_56_">
		<g>
			<path id="XMLID_505_" class="st3" d="M75.17,133.92h-1.52l-0.3,2.05h-1.49l1.81-8.82h1.58l1.81,8.82h-1.58L75.17,133.92z
				 M74.92,132.65l-0.48-3.16H74.4l-0.49,3.16H74.92z"/>
			<path id="XMLID_503_" class="st3" d="M83.51,127.15v8.82h-1.58l-1.55-5.05h-0.02v5.05h-1.58v-8.82h1.66l1.46,4.89h0.02v-4.89
				H83.51z"/>
			<path id="XMLID_501_" class="st3" d="M88.46,129.71v-0.69c0-0.26-0.26-0.72-0.72-0.72c-0.55,0-0.79,0.45-0.79,0.72v5.09
				c0,0.26,0.24,0.72,0.79,0.72c0.59,0,0.9-0.42,0.9-1.13v-1.35h-0.88v-1.26h2.29v2.72c0,1.2-0.72,2.28-2.31,2.28
				c-1.75,0-2.38-1.08-2.38-1.97v-5.1c0-0.9,0.63-1.98,2.38-1.98c1.59,0,2.31,1.08,2.31,1.98v0.69H88.46z"/>
			<path id="XMLID_499_" class="st3" d="M95.52,134.71v1.26h-3.64v-8.82h1.58v7.56H95.52z"/>
			<path id="XMLID_497_" class="st3" d="M98.81,128.41v2.17h1.6v1.26h-1.6v2.87h2.41v1.26h-3.98v-8.82h3.81v1.26H98.81z"/>
			<path id="XMLID_494_" class="st3" d="M106.5,135.97l-1.5-3.55c-0.21,0-0.44,0-0.5,0v3.55h-1.56v-8.82h2.63
				c1.51,0,2.23,1.11,2.23,2.52c0,1.31-0.57,2.16-1.32,2.53l1.66,3.77H106.5z M104.5,131.08h0.5c1.02,0,1.3-0.13,1.3-1.41
				c0-0.71-0.16-1.26-0.78-1.26h-1.02V131.08z"/>
			<path id="XMLID_492_" class="st3" d="M112.54,129.62v-0.37c0-0.62-0.33-0.96-0.71-0.96c-0.4,0-0.71,0.29-0.71,0.69
				c0,0.38,0.08,0.67,0.44,1.08l1.58,1.8c0.63,0.72,1.02,1.2,1.02,2.24c0,1.27-1.07,1.98-2.33,1.98c-1.27,0-2.29-0.72-2.29-1.98
				v-0.92h1.59v0.82c0,0.54,0.3,0.81,0.71,0.81c0.39,0,0.71-0.29,0.71-0.81c0-0.47-0.19-0.82-0.52-1.2l-1.31-1.35
				c-0.83-0.98-1.19-1.26-1.19-2.47c0-1.2,0.96-1.97,2.31-1.97c1.34,0,2.28,0.79,2.28,1.97v0.62H112.54z"/>
			<path id="XMLID_490_" class="st3" d="M115.94,134.4h1.58v1.58h-1.58V134.4z"/>
			<path id="XMLID_487_" class="st3" d="M123.98,129v5.09c0,0.91-0.71,1.99-2.28,1.99c-1.74,0-2.36-1.08-2.36-1.99V129
				c0-0.91,0.62-1.97,2.36-1.97C123.27,127.04,123.98,128.1,123.98,129z M122.4,129.02c0-0.26-0.25-0.74-0.71-0.74
				c-0.55,0-0.78,0.48-0.78,0.72v5.08c0,0.29,0.23,0.76,0.78,0.76c0.45,0,0.71-0.49,0.71-0.76V129.02z"/>
			<path id="XMLID_484_" class="st3" d="M129.39,135.97l-1.5-3.55c-0.21,0-0.44,0-0.5,0v3.55h-1.56v-8.82h2.63
				c1.51,0,2.23,1.11,2.23,2.52c0,1.31-0.57,2.16-1.32,2.53l1.66,3.77H129.39z M127.39,131.08h0.5c1.02,0,1.3-0.13,1.3-1.41
				c0-0.71-0.16-1.26-0.78-1.26h-1.02V131.08z"/>
			<path id="XMLID_482_" class="st3" d="M135.57,129.71v-0.69c0-0.26-0.26-0.72-0.72-0.72c-0.55,0-0.79,0.45-0.79,0.72v5.09
				c0,0.26,0.24,0.72,0.79,0.72c0.59,0,0.9-0.42,0.9-1.13v-1.35h-0.88v-1.26h2.29v2.72c0,1.2-0.72,2.28-2.31,2.28
				c-1.75,0-2.38-1.08-2.38-1.97v-5.1c0-0.9,0.63-1.98,2.38-1.98c1.59,0,2.31,1.08,2.31,1.98v0.69H135.57z"/>
		</g>
	</g>
	<g id="XMLID_1_">
		<g>
			<path id="XMLID_437_" class="st3" d="M80.72,31.26v2.41h1.78v1.4h-1.78v3.19h2.68v1.4h-4.43v-9.81h4.23v1.4H80.72z"/>
			<path id="XMLID_435_" class="st3" d="M88.54,32.61V32.2c0-0.69-0.36-1.06-0.78-1.06c-0.45,0-0.78,0.32-0.78,0.77
				c0,0.42,0.08,0.74,0.49,1.2l1.75,2c0.7,0.8,1.13,1.33,1.13,2.49c0,1.42-1.19,2.2-2.59,2.2c-1.42,0-2.55-0.8-2.55-2.2v-1.02h1.76
				v0.91c0,0.6,0.34,0.9,0.78,0.9c0.43,0,0.78-0.32,0.78-0.9c0-0.52-0.21-0.91-0.57-1.33l-1.46-1.5c-0.92-1.09-1.32-1.4-1.32-2.75
				c0-1.33,1.06-2.19,2.56-2.19c1.48,0,2.54,0.88,2.54,2.19v0.69H88.54z"/>
			<path id="XMLID_433_" class="st3" d="M97.45,31.25h-1.81v8.42H93.9v-8.42H92.1v-1.39h5.35V31.25z"/>
			<path id="XMLID_431_" class="st3" d="M98.48,37.92h1.75v1.75h-1.75V37.92z"/>
			<path id="XMLID_429_" class="st3" d="M106.22,29.86h1.75v9.81h-1.75v-8.4h-0.78v-1.01L106.22,29.86z"/>
			<path id="XMLID_426_" class="st3" d="M109.99,33.69c0-0.14,0.01-1.25,0.01-1.37c0-1.54,0.95-2.58,2.77-2.58
				c1.77,0,2.56,1.21,2.56,2.2c0,0,0,4.69,0,4.93c0,1.58-1.05,2.93-2.66,2.93c-1.67,0-2.44-1.2-2.44-2.2v-0.77h1.68v0.77
				c0,0.41,0.28,0.8,0.76,0.8c0.67,0,0.9-0.74,0.9-1.53v-1.55c-0.24,0.29-0.59,0.55-1.19,0.55
				C110.77,35.86,109.99,34.85,109.99,33.69z M111.78,33.69c0,0.49,0.42,0.78,0.87,0.78c0.56,0,0.92-0.27,0.92-0.52v-2
				c0-0.29-0.29-0.81-0.8-0.81c-0.7,0-0.98,0.38-0.98,1.18C111.8,32.43,111.78,33.56,111.78,33.69z"/>
			<path id="XMLID_422_" class="st3" d="M123,36.87c0,1.58-1.11,2.93-2.79,2.93c-1.74,0-2.87-1.27-2.87-2.93
				c0-1.36,0.71-2.1,1.61-2.49c-0.63-0.27-1.29-1.18-1.29-2.17c0-1.53,0.91-2.47,2.45-2.47c1.6,0,2.55,0.88,2.55,2.47
				c0,0.99-0.64,1.91-1.29,2.17C122.27,34.77,123,35.51,123,36.87z M121.21,36.87c0-0.91-0.24-1.6-1.04-1.75
				c-0.81,0.15-1.05,0.84-1.05,1.75c0,0.97,0.35,1.53,1.19,1.53C120.94,38.39,121.21,37.58,121.21,36.87z M119.31,32.33
				c0,0.53,0.22,1.04,0.85,1.25c0.62-0.21,0.84-0.71,0.84-1.25c0-0.7-0.28-1.19-0.81-1.19S119.31,31.64,119.31,32.33z"/>
			<path id="XMLID_419_" class="st3" d="M130.33,35.84c0,0.14-0.01,1.25-0.01,1.37c0,1.54-0.95,2.58-2.76,2.58
				c-1.76,0-2.56-1.2-2.56-2.2c0,0,0-4.69,0-4.92c0-1.58,1.04-2.94,2.63-2.94c1.69,0,2.45,1.21,2.45,2.2v0.67h-1.69v-0.66
				c0-0.42-0.27-0.81-0.76-0.81c-0.67,0-0.87,0.76-0.87,1.54v1.54c0.21-0.29,0.57-0.55,1.19-0.55
				C129.55,33.67,130.33,34.7,130.33,35.84z M128.54,35.84c0-0.49-0.42-0.77-0.88-0.77c-0.55,0-0.9,0.25-0.9,0.5v2.02
				c0,0.29,0.28,0.8,0.8,0.8c0.67,0,0.97-0.38,0.97-1.18C128.53,37.1,128.54,35.98,128.54,35.84z"/>
		</g>
	</g>
	<g id="XMLID_194_">
		<circle id="XMLID_197_" class="st4" cx="104.75" cy="14.11" r="3.91"/>
		
			<ellipse id="XMLID_195_" transform="matrix(0.7714 -0.6364 0.6364 0.7714 15.9964 68.262)" class="st5" cx="103" cy="11.87" rx="0.76" ry="0.47"/>
	</g>
	<g id="XMLID_191_">
		<circle id="XMLID_193_" class="st4" cx="82.59" cy="19.3" r="3.91"/>
		
			<ellipse id="XMLID_192_" transform="matrix(0.7714 -0.6364 0.6364 0.7714 7.6274 55.3439)" class="st5" cx="80.84" cy="17.06" rx="0.76" ry="0.47"/>
	</g>
	<g id="XMLID_188_">
		<circle id="XMLID_190_" class="st4" cx="126.15" cy="19.3" r="3.91"/>
		
			<ellipse id="XMLID_189_" transform="matrix(0.7714 -0.6364 0.6364 0.7714 17.5876 83.0683)" class="st5" cx="124.4" cy="17.06" rx="0.76" ry="0.47"/>
	</g>
	<ellipse id="XMLID_187_" class="st5" cx="82.59" cy="20.59" rx="1.98" ry="1.04"/>
	<ellipse id="XMLID_186_" class="st5" cx="104.75" cy="15.45" rx="1.98" ry="1.04"/>
	<ellipse id="XMLID_185_" class="st5" cx="126.15" cy="20.59" rx="1.98" ry="1.04"/>
	<path id="XMLID_40_" class="st6" d="M116.89,70c0,0-2.84-1.5-4.25-1.55c0,0-11.15-10.55-13.73-11.98c0,0-6.74,11.01-9.7,11.89
		c0,0-0.82,0.97,2.67,1.26c0,0,3.3,0,3.64,0.39c0,0,1.16,0.44,1.07,1.07"/>
	<path id="XMLID_37_" class="st6" d="M69.3,72.5c0,0-4.98-3.09-12.83-3.5c0,0-2.33,0.5-4.17,4.33c0,0,0,0.67,1.17,1.33"/>
	<path id="XMLID_11_" class="st6" d="M49.02,90.65c-1.49-0.24-13.19,4.72-13.19,4.72C12.2,110.18,3,107.99,3,107.99
		c0-5,8.94-19.19,8.94-19.19c4.69-5.76,1.92-9.6,1.92-9.6C3.41,57.66,4.7,57.54,4.7,57.54c5.77-0.14,27.94,10.15,27.94,10.15
		c3.84,2.13,10.45,4.69,10.45,4.69l5.1,1.97c1.46,0.84,13.2,0.5,13.2,0.5c23.6-6.77,94.08-6.32,94.08-6.32l7.77,0.57
		c0,0,30.44,3.68,35.07,11.93c0,0-7.24,3.78-11.49,7.78c0,0,6.11-0.65,7.49-1.03l5.29-0.41c0,0,0.41,0.43-7.67,6.28
		c0,0-5.5,2.75-12.5,4.75l-7.33,1.55c-6.02,1.5-11.69,4.37-16.77,5.42c0,0-14.73,3.03-39.02,1.32c-24.29-1.71-16.63-2.73-35.71-7.35
		S61.02,92.57,49.02,90.65z"/>
	<path id="XMLID_12_" class="st6" d="M116.31,100.42c0,0-3.62,15.24-10.26,17.35c0,0-3-3-5.1-8.39c-0.72-1.86-1.34-4-1.69-6.4
		c0,0,0.3-2.41,2.26-2.57c0,0,3.17,1.06,4.68,0"/>
	<path id="XMLID_5_" class="st6" d="M76.51,97.05c0,0-4.03,6.27-9.8,10.09c0,0-2.82,2.99-4.06,2.71c-0.75-0.17-0.29-2.15-0.11-4.88
		c0,0-1.64-5.24-5.42-8.65c0,0-1.83-1.46,0-2.32c0,0,0.37,0.12,5-0.98"/>
	<polygon id="XMLID_403_" class="st7" points="95.9,129.6 103.57,129.6 103.57,129.6 95.9,129.6 	"/>
	<g id="XMLID_294_">
		<path id="XMLID_315_" class="st7" d="M38.79,95.03"/>
	</g>
	<g id="XMLID_114_">
		<path id="XMLID_312_" class="st7" d="M38.79,69.61"/>
	</g>
	<g id="XMLID_173_">
		<polygon id="XMLID_176_" class="st8" points="8.01,64.57 29.42,72.77 7.38,66.47 		"/>
	</g>
	<g id="XMLID_170_">
		<polygon id="XMLID_316_" class="st8" points="12.28,74.67 23.75,76.99 12.05,76.66 		"/>
	</g>
	<g id="XMLID_167_">
		<polygon id="XMLID_174_" class="st8" points="13.44,85.23 23.75,83.96 13.87,87.18 		"/>
	</g>
	<g id="XMLID_164_">
		<polygon id="XMLID_171_" class="st8" points="10.24,90.88 27.42,88.06 10.68,92.83 		"/>
	</g>
	<g id="XMLID_161_">
		<polygon id="XMLID_168_" class="st8" points="6.26,97.18 28.42,90.78 6.9,99.07 		"/>
	</g>
	<g id="XMLID_158_">
		<polygon id="XMLID_165_" class="st8" points="3.25,102.72 28.15,95.03 3.91,104.61 		"/>
	</g>
	<path id="XMLID_157_" class="st8" d="M185.89,78.9c-0.03-0.38-0.23-0.77-0.64-0.83c-0.07-0.01-0.54-0.16-0.67-0.19
		c-0.33-0.09-0.68-0.09-1.03-0.03c-0.21,0.01-0.96,0.3-1.1,0.42c-0.59,0.35-0.6,0.42-0.97,1.02c-0.22,0.36-0.12,1.18,0.28,1.37
		c0.89,0.43,1.44,1.13,2.44,0.85c0.35,0.01,0.65-0.13,0.89-0.37c0.25-0.25,0.39-0.58,0.47-0.93c0.12-0.26,0.15-0.29,0.21-0.58"/>
	<path id="XMLID_22_" class="st9" d="M43.21,91.86c0,0,4.59-6.26,44.92,9.76c0,0-0.76-0.12,11.13,3.3"/>
	<path id="XMLID_9_" class="st10" d="M114.35,106.63c5.55,0.2,16.6,0.58,24.31,0.46c0,0,1.61,0.04,4.24-0.11"/>
	<g id="XMLID_20_">
		<path id="XMLID_27_" class="st8" d="M158.33,96.23c-1.42-0.08-2.85,0.06-4.24,0.34c-0.35,0.06-0.69,0.17-1.03,0.25
			c-0.35,0.08-0.67,0.21-1.01,0.32c-0.34,0.1-0.66,0.24-0.98,0.39c-0.32,0.14-0.65,0.27-0.95,0.45c-0.3,0.18-0.62,0.32-0.91,0.52
			l-0.85,0.6c-0.28,0.21-0.52,0.46-0.78,0.68c-0.27,0.22-0.51,0.47-0.72,0.74c-0.22,0.27-0.46,0.51-0.67,0.79l-0.57,0.86
			c-0.4,0.56-0.63,1.22-0.96,1.82l0.03-0.1c-0.21,0.86-0.47,1.66-0.79,2.46c-0.32,0.8-0.68,1.58-1.12,2.33
			c-0.45,0.75-0.96,1.47-1.57,2.13c-0.33,0.31-0.64,0.64-1.02,0.91c-0.19,0.14-0.36,0.29-0.57,0.4l-0.61,0.35l-0.55-1.5
			c2.83-0.86,5.63-1.88,8.4-2.89c1.38-0.52,2.77-1.02,4.12-1.56c0.68-0.26,1.35-0.54,2.01-0.84c0.65-0.31,1.28-0.62,1.87-0.97
			l-0.15,0.13c1.07-1.11,2.16-2.17,3.29-3.2c0.56-0.52,1.15-1.02,1.74-1.5c0.6-0.48,1.2-0.97,1.88-1.36
			c0.05-0.03,0.11-0.01,0.14,0.04c0.02,0.04,0.01,0.09-0.02,0.12c-1.06,1.07-1.98,2.29-2.94,3.46l-2.84,3.54
			c-0.04,0.05-0.08,0.09-0.13,0.12l-0.02,0.02c-0.33,0.23-0.65,0.46-0.99,0.68l-1.01,0.59c-0.68,0.36-1.37,0.71-2.06,1.02
			c-0.7,0.31-1.39,0.61-2.1,0.88c-0.7,0.27-1.41,0.54-2.13,0.77c-1.43,0.48-2.86,0.93-4.31,1.33c-1.45,0.4-2.89,0.81-4.35,1.17
			c-0.43,0.11-0.87-0.15-0.98-0.58c-0.09-0.37,0.09-0.74,0.41-0.91l0.02-0.01l0.48-0.25c0.17-0.07,0.31-0.19,0.46-0.29
			c0.31-0.19,0.58-0.46,0.87-0.71c0.54-0.53,1.02-1.15,1.46-1.81c0.43-0.66,0.8-1.37,1.13-2.1c0.32-0.73,0.62-1.5,0.83-2.24
			l0.02-0.06l0.02-0.04c0.38-0.65,0.67-1.34,1.13-1.94l0.67-0.9c0.23-0.29,0.51-0.55,0.77-0.82c0.25-0.28,0.52-0.53,0.83-0.75
			c0.3-0.23,0.57-0.48,0.88-0.68l0.95-0.58c0.32-0.19,0.66-0.33,0.99-0.49c0.33-0.17,0.67-0.29,1.02-0.42
			c0.34-0.13,0.69-0.26,1.04-0.34c0.35-0.09,0.7-0.21,1.06-0.27c0.36-0.06,0.71-0.15,1.08-0.19c1.44-0.2,2.9-0.26,4.34-0.09
			c0.05,0.01,0.09,0.06,0.09,0.11C158.43,96.19,158.38,96.23,158.33,96.23z"/>
	</g>
	<g id="XMLID_18_">
		<path id="XMLID_26_" class="st8" d="M116.89,70c-0.71-0.27-1.43-0.51-2.15-0.74c-0.36-0.11-0.72-0.2-1.08-0.28
			c-0.35-0.08-0.72-0.14-1.03-0.12l-0.13,0.01l-0.15-0.12c-2.35-1.93-4.67-3.9-6.99-5.85c-1.15-0.99-2.31-1.96-3.48-2.92
			c-0.58-0.48-1.16-0.97-1.74-1.42c-0.29-0.23-0.58-0.46-0.88-0.67c-0.3-0.23-0.57-0.39-0.84-0.56l1.33-0.35
			c-0.68,1.13-1.41,2.2-2.14,3.28c-0.74,1.08-1.48,2.14-2.29,3.17c-0.81,1.03-1.63,2.06-2.54,3.02c-0.46,0.48-0.94,0.95-1.46,1.4
			c-0.27,0.22-0.54,0.44-0.85,0.64c-0.31,0.2-0.65,0.39-1.07,0.51l0.32-0.21c0.07-0.1,0.05-0.09,0.06-0.15
			c0-0.05-0.01-0.11-0.03-0.14c-0.01-0.03-0.04-0.04-0.02-0.02c0,0.01,0.02,0.03,0.05,0.05c0.06,0.04,0.14,0.1,0.25,0.14
			c0.1,0.05,0.21,0.09,0.33,0.13c0.48,0.16,1.01,0.25,1.55,0.33l-0.04,0c0.63,0.05,1.24,0.1,1.87,0.18
			c0.31,0.04,0.62,0.08,0.93,0.15c0.16,0.03,0.31,0.07,0.47,0.12c0.08,0.02,0.16,0.05,0.25,0.09c0.09,0.04,0.17,0.06,0.29,0.19
			l-0.09-0.06c0.26,0.14,0.49,0.3,0.7,0.51c0.19,0.2,0.38,0.49,0.29,0.77c-0.01-0.28-0.23-0.46-0.44-0.58
			c-0.22-0.12-0.47-0.22-0.7-0.28l-0.09-0.06c0.01,0.01-0.06-0.02-0.11-0.03c-0.06-0.01-0.13-0.03-0.2-0.03
			c-0.14-0.02-0.29-0.03-0.44-0.03c-0.3-0.01-0.6-0.02-0.9-0.02c-0.61,0.01-1.22,0.03-1.82,0.07l-0.04,0
			c-0.58-0.02-1.16-0.06-1.77-0.18c-0.15-0.03-0.31-0.07-0.47-0.12c-0.16-0.05-0.33-0.12-0.5-0.22c-0.17-0.1-0.39-0.26-0.54-0.57
			c-0.07-0.16-0.11-0.36-0.08-0.55c0.03-0.2,0.07-0.33,0.22-0.54l0.08-0.11l0.24-0.1c0.39-0.16,0.87-0.55,1.29-0.97
			c0.43-0.42,0.84-0.89,1.24-1.38c0.8-0.97,1.56-1.98,2.29-3.02c0.73-1.05,1.45-2.1,2.16-3.16c0.71-1.06,1.39-2.16,2.07-3.23
			l0.54-0.85l0.79,0.5c0.37,0.23,0.74,0.47,1.04,0.71c0.33,0.24,0.63,0.48,0.93,0.73c0.61,0.49,1.19,0.99,1.77,1.49
			c1.15,1.02,2.26,2.06,3.37,3.11c2.2,2.11,4.35,4.27,6.42,6.51l-0.27-0.11c0.45,0.05,0.82,0.18,1.19,0.32
			c0.37,0.14,0.72,0.31,1.06,0.48C115.6,69.17,116.26,69.58,116.89,70z"/>
	</g>
	<g id="XMLID_146_">
		<path id="XMLID_148_" class="st8" d="M111.47,70.05L99.59,59.38l12.53,9.91c0.22,0.17,0.25,0.49,0.08,0.7
			c-0.17,0.22-0.49,0.25-0.7,0.08C111.48,70.06,111.47,70.05,111.47,70.05z"/>
	</g>
	<g id="XMLID_143_">
		<path id="XMLID_145_" class="st8" d="M106.66,69.99l-7.87-7.66l8.53,6.91c0.21,0.17,0.25,0.49,0.07,0.7
			c-0.17,0.21-0.49,0.25-0.7,0.07C106.68,70.01,106.67,70,106.66,69.99z"/>
	</g>
	<g id="XMLID_140_">
		<path id="XMLID_142_" class="st8" d="M102.37,69.63l-4.88-4.67l5.52,3.9c0.23,0.16,0.28,0.47,0.12,0.7
			c-0.16,0.23-0.47,0.28-0.7,0.12C102.41,69.66,102.39,69.65,102.37,69.63z"/>
	</g>
	<g id="XMLID_137_">
		<path id="XMLID_139_" class="st8" d="M98.71,70.21l-3.89-3.68l4.51,2.89c0.23,0.15,0.3,0.46,0.15,0.69
			c-0.15,0.23-0.46,0.3-0.69,0.15C98.76,70.25,98.73,70.23,98.71,70.21z"/>
	</g>
	<g id="XMLID_16_">
		<path id="XMLID_25_" class="st8" d="M69.3,72.5c-1.09-0.34-2.16-0.63-3.23-0.91c-0.53-0.14-1.07-0.25-1.6-0.38
			c-0.53-0.13-1.07-0.22-1.6-0.34c-0.53-0.11-1.07-0.21-1.6-0.29c-0.54-0.09-1.07-0.18-1.61-0.25c-0.53-0.09-1.08-0.13-1.61-0.21
			c-0.54-0.06-1.08-0.1-1.62-0.16l0.25-0.02c0.01-0.01-0.12,0.04-0.2,0.06c-0.09,0.03-0.18,0.07-0.28,0.11
			c-0.19,0.08-0.38,0.19-0.56,0.31c-0.37,0.24-0.71,0.54-1.06,0.85c-0.35,0.31-0.65,0.69-0.96,1.06c-0.31,0.38-0.59,0.78-0.87,1.2
			l0.05-0.21c-0.01-0.05-0.02,0-0.02,0c0,0.02-0.01,0.04,0,0.07c0,0.05,0.01,0.11,0.02,0.16c0.03,0.12,0.09,0.24,0.15,0.36
			c0.13,0.25,0.32,0.5,0.54,0.74c-0.32-0.06-0.63-0.17-0.92-0.36c-0.15-0.09-0.29-0.21-0.42-0.35c-0.06-0.07-0.12-0.15-0.18-0.25
			c-0.03-0.05-0.05-0.1-0.07-0.15c-0.02-0.07-0.04-0.09-0.06-0.22l-0.01-0.05l0.05-0.15c0.17-0.51,0.38-1.01,0.62-1.5
			c0.26-0.48,0.54-0.96,0.89-1.41c0.34-0.45,0.74-0.87,1.2-1.24c0.23-0.18,0.47-0.36,0.74-0.51c0.13-0.08,0.27-0.15,0.42-0.22
			c0.16-0.07,0.27-0.12,0.53-0.19l0.1-0.03l0.16,0.01c1.15,0.04,2.3,0.14,3.44,0.34c1.14,0.18,2.25,0.49,3.35,0.83
			c1.09,0.37,2.16,0.81,3.17,1.35C67.48,71.1,68.46,71.71,69.3,72.5z"/>
	</g>
	<path id="XMLID_133_" class="st8" d="M152.79,75.3c-0.04-0.07-0.08-0.13-0.11-0.19c-0.02-0.26-0.16-0.54-0.45-0.58
		c-0.05-0.01-0.38-0.11-0.47-0.13c-0.23-0.06-0.48-0.06-0.72-0.02c-0.15,0.01-0.67,0.21-0.77,0.3c-0.41,0.25-0.58,0.55-0.84,0.97
		c-0.15,0.25-0.2,0.64,0.08,0.77c0.63,0.3,1.28,0.72,1.98,0.53c0.24,0.01,0.46-0.09,0.62-0.26c0.18-0.18,0.27-0.41,0.33-0.65
		c0.09-0.18,0.1-0.2,0.15-0.4C152.69,75.69,152.84,75.39,152.79,75.3z"/>
	<path id="XMLID_132_" class="st8" d="M138.43,75.44c-0.02-0.04-0.05-0.08-0.07-0.11c-0.01-0.16-0.1-0.33-0.27-0.35
		c-0.03,0-0.23-0.07-0.28-0.08c-0.14-0.04-0.29-0.04-0.44-0.01c-0.09,0-0.41,0.13-0.47,0.18c-0.25,0.15-0.35,0.33-0.51,0.59
		c-0.09,0.15-0.12,0.39,0.05,0.47c0.38,0.18,0.77,0.44,1.2,0.32c0.15,0,0.28-0.06,0.38-0.16c0.11-0.11,0.17-0.25,0.2-0.4
		c0.05-0.11,0.06-0.12,0.09-0.24C138.37,75.68,138.46,75.5,138.43,75.44z"/>
	<path id="XMLID_131_" class="st8" d="M64.18,72.11c-0.02-0.04-0.05-0.08-0.07-0.11c-0.01-0.16-0.1-0.33-0.27-0.35
		c-0.03,0-0.23-0.07-0.28-0.08c-0.14-0.04-0.29-0.04-0.44-0.01c-0.09,0-0.41,0.13-0.47,0.18c-0.25,0.15-0.35,0.33-0.51,0.59
		c-0.09,0.15-0.12,0.39,0.05,0.47c0.38,0.18,0.77,0.44,1.2,0.32c0.15,0,0.28-0.06,0.38-0.16c0.11-0.11,0.17-0.25,0.2-0.4
		c0.05-0.11,0.06-0.12,0.09-0.24C64.12,72.35,64.21,72.17,64.18,72.11z"/>
	<path id="XMLID_130_" class="st8" d="M56.32,73.14c-0.01-0.03-0.03-0.05-0.04-0.07c-0.01-0.1-0.06-0.21-0.17-0.23
		c-0.02,0-0.15-0.04-0.18-0.05c-0.09-0.02-0.19-0.03-0.28-0.01c-0.06,0-0.26,0.08-0.3,0.12c-0.16,0.1-0.23,0.21-0.33,0.38
		c-0.06,0.1-0.08,0.25,0.03,0.3c0.24,0.12,0.5,0.28,0.77,0.21c0.09,0,0.18-0.04,0.24-0.1c0.07-0.07,0.11-0.16,0.13-0.25
		c0.03-0.07,0.04-0.08,0.06-0.16C56.28,73.29,56.34,73.18,56.32,73.14z"/>
	<path id="XMLID_129_" class="st8" d="M59.3,71.14c-0.01-0.02-0.02-0.04-0.03-0.05c-0.01-0.08-0.05-0.15-0.13-0.17
		c-0.01,0-0.11-0.03-0.13-0.04c-0.07-0.02-0.14-0.02-0.21-0.01c-0.04,0-0.19,0.06-0.22,0.08c-0.12,0.07-0.17,0.16-0.24,0.28
		c-0.04,0.07-0.06,0.18,0.02,0.22c0.18,0.09,0.36,0.21,0.56,0.15c0.07,0,0.13-0.03,0.18-0.07c0.05-0.05,0.08-0.12,0.09-0.19
		c0.02-0.05,0.03-0.06,0.04-0.11C59.27,71.25,59.31,71.17,59.3,71.14z"/>
	<path id="XMLID_8_" class="st11" d="M155.34,105.38c5.08-1.05,10.75-3.92,16.77-5.42l7.33-1.55c7-2,12.5-4.75,12.5-4.75
		c8.08-5.85,7.67-6.28,7.67-6.28l-5.29,0.41c-1.38,0.38-7.49,1.03-7.49,1.03c4.25-4,11.49-7.78,11.49-7.78
		c-4.62-8.25-35.07-11.93-35.07-11.93l-7.77-0.57c0,0-70.48-0.45-94.08,6.32c0,0-11.74,0.34-13.2-0.5l-5.1-1.97
		c0,0-6.61-2.56-10.45-4.69c0,0-22.17-10.29-27.94-10.15c0,0-1.29,0.12,9.17,21.67c0,0,2.77,3.84-1.92,9.6
		c0,0-8.94,14.19-8.94,19.19c0,0,9.2,2.19,32.84-12.62c0,0,11.7-4.99,13.19-4.72"/>
	<path id="XMLID_127_" class="st12" d="M192.22,86.56"/>
	<path id="XMLID_126_" class="st8" d="M143.05,80.95c-0.02-0.04-0.05-0.08-0.07-0.11c-0.01-0.16-0.1-0.33-0.27-0.35
		c-0.03,0-0.23-0.07-0.28-0.08c-0.14-0.04-0.29-0.04-0.44-0.01c-0.09,0-0.41,0.13-0.47,0.18c-0.25,0.15-0.35,0.33-0.51,0.59
		c-0.09,0.15-0.12,0.39,0.05,0.47c0.38,0.18,0.77,0.44,1.2,0.32c0.15,0,0.28-0.06,0.38-0.16c0.11-0.11,0.17-0.25,0.2-0.4
		c0.05-0.11,0.06-0.12,0.09-0.24C142.99,81.19,143.08,81,143.05,80.95z"/>
	<path id="XMLID_125_" class="st8" d="M109.1,76.77c-0.02-0.04-0.05-0.08-0.07-0.11c-0.01-0.16-0.1-0.33-0.27-0.35
		c-0.03,0-0.23-0.07-0.28-0.08c-0.14-0.04-0.29-0.04-0.44-0.01c-0.09,0-0.41,0.13-0.47,0.18c-0.25,0.15-0.35,0.33-0.51,0.59
		c-0.09,0.15-0.12,0.39,0.05,0.47c0.38,0.18,0.77,0.44,1.2,0.32c0.15,0,0.28-0.06,0.38-0.16c0.11-0.11,0.17-0.25,0.2-0.4
		c0.05-0.11,0.06-0.12,0.09-0.24C109.04,77.01,109.13,76.82,109.1,76.77z"/>
	<path id="XMLID_124_" class="st8" d="M74.22,78.76c-0.04-0.07-0.08-0.13-0.11-0.19c-0.02-0.26-0.16-0.54-0.45-0.58
		c-0.05-0.01-0.38-0.11-0.47-0.13c-0.23-0.06-0.48-0.06-0.72-0.02c-0.15,0.01-0.67,0.21-0.77,0.3c-0.41,0.25-0.58,0.55-0.84,0.97
		c-0.15,0.25-0.2,0.64,0.08,0.77c0.63,0.3,1.28,0.72,1.98,0.53c0.24,0.01,0.46-0.09,0.62-0.26c0.18-0.18,0.27-0.41,0.33-0.65
		c0.09-0.18,0.1-0.2,0.15-0.4C74.12,79.15,74.27,78.85,74.22,78.76z"/>
	<path id="XMLID_123_" class="st8" d="M77.71,87.69c-0.04-0.07-0.08-0.13-0.11-0.19c-0.02-0.26-0.16-0.54-0.45-0.58
		c-0.05-0.01-0.38-0.11-0.47-0.13c-0.23-0.06-0.48-0.06-0.72-0.02c-0.15,0.01-0.67,0.21-0.77,0.3c-0.41,0.25-0.58,0.55-0.84,0.97
		c-0.15,0.25-0.2,0.64,0.08,0.77c0.63,0.3,1.28,0.72,1.98,0.53c0.24,0.01,0.46-0.09,0.62-0.26c0.18-0.18,0.27-0.41,0.33-0.65
		c0.09-0.18,0.1-0.2,0.15-0.4C77.61,88.08,77.76,87.78,77.71,87.69z"/>
	<path id="XMLID_122_" class="st8" d="M84.98,80.95c-0.02-0.04-0.05-0.08-0.07-0.11c-0.01-0.16-0.1-0.33-0.27-0.35
		c-0.03,0-0.23-0.07-0.28-0.08c-0.14-0.04-0.29-0.04-0.44-0.01c-0.09,0-0.41,0.13-0.47,0.18c-0.25,0.15-0.35,0.33-0.51,0.59
		c-0.09,0.15-0.12,0.39,0.05,0.47c0.38,0.18,0.77,0.44,1.2,0.32c0.15,0,0.28-0.06,0.38-0.16c0.11-0.11,0.17-0.25,0.2-0.4
		c0.05-0.11,0.06-0.12,0.09-0.24C84.92,81.19,85.01,81,84.98,80.95z"/>
	<path id="XMLID_121_" class="st8" d="M98.67,74.71c-0.02-0.03-0.03-0.05-0.05-0.08c-0.01-0.12-0.07-0.23-0.19-0.25
		c-0.02,0-0.16-0.05-0.2-0.06c-0.1-0.03-0.21-0.03-0.31-0.01c-0.06,0-0.29,0.09-0.34,0.13c-0.18,0.11-0.25,0.24-0.36,0.42
		c-0.07,0.11-0.09,0.28,0.04,0.33c0.27,0.13,0.55,0.31,0.86,0.23c0.11,0,0.2-0.04,0.27-0.11c0.08-0.08,0.12-0.18,0.14-0.28
		c0.04-0.08,0.04-0.09,0.06-0.18C98.63,74.88,98.69,74.75,98.67,74.71z"/>
	<path id="XMLID_120_" class="st8" d="M120.18,80.21c-0.02-0.03-0.03-0.05-0.05-0.08c-0.01-0.12-0.07-0.23-0.19-0.25
		c-0.02,0-0.16-0.05-0.2-0.06c-0.1-0.03-0.21-0.03-0.31-0.01c-0.06,0-0.29,0.09-0.34,0.13c-0.18,0.11-0.25,0.24-0.36,0.42
		c-0.07,0.11-0.09,0.28,0.04,0.33c0.27,0.13,0.55,0.31,0.86,0.23c0.11,0,0.2-0.04,0.27-0.11c0.08-0.08,0.12-0.18,0.14-0.28
		c0.04-0.08,0.04-0.09,0.06-0.18C120.14,80.39,120.2,80.25,120.18,80.21z"/>
	<path id="XMLID_119_" class="st8" d="M150.58,81.81c-0.02-0.03-0.03-0.05-0.05-0.08c-0.01-0.12-0.07-0.23-0.19-0.25
		c-0.02,0-0.16-0.05-0.2-0.06c-0.1-0.03-0.21-0.03-0.31-0.01c-0.06,0-0.29,0.09-0.34,0.13c-0.18,0.11-0.25,0.24-0.36,0.42
		c-0.07,0.11-0.09,0.28,0.04,0.33c0.27,0.13,0.55,0.31,0.86,0.23c0.11,0,0.2-0.04,0.27-0.11c0.08-0.08,0.12-0.18,0.14-0.28
		c0.04-0.08,0.04-0.09,0.06-0.18C150.54,81.99,150.6,81.85,150.58,81.81z"/>
	<path id="XMLID_118_" class="st8" d="M190.96,85.88c0,0-4.18,4.18-5.63,3.45c0,0,7.36,3.98,15.36-2.77L190.96,85.88z"/>
	<g id="XMLID_115_">
		<path id="XMLID_117_" class="st8" d="M190.46,82.15c0,0-1.15,0.59-2.82,1.56c-0.83,0.49-1.79,1.07-2.8,1.73
			c-1,0.66-2.05,1.4-2.95,2.26c-0.43,0.42-0.85,0.94-0.92,1.34c-0.02,0.1-0.01,0.15,0.01,0.22c0.03,0.08,0.09,0.17,0.15,0.23
			c0.12,0.14,0.3,0.21,0.51,0.25c0.44,0.09,0.97-0.01,1.46-0.15c0.25-0.06,0.49-0.15,0.72-0.24c0.24-0.08,0.46-0.16,0.68-0.26
			c0.88-0.35,1.59-0.73,2.09-0.98c0.5-0.26,0.8-0.39,0.8-0.39l0.06,0.08c0,0-0.23,0.23-0.67,0.6c-0.21,0.2-0.48,0.42-0.81,0.64
			c-0.32,0.24-0.68,0.51-1.12,0.76c-0.42,0.26-0.91,0.51-1.47,0.71c-0.55,0.21-1.2,0.36-1.96,0.25c-0.75-0.14-1.63-0.9-1.38-1.93
			c0.26-0.84,0.81-1.27,1.3-1.73c1.02-0.87,2.13-1.55,3.19-2.17c1.05-0.61,2.07-1.12,2.94-1.55c1.75-0.85,2.94-1.34,2.94-1.34
			L190.46,82.15z"/>
	</g>
	<g id="XMLID_112_">
		<path id="XMLID_308_" class="st8" d="M166.38,74.47c-1.47,1.85-2.74,3.86-3.72,5.97c-0.98,2.11-1.71,4.34-1.82,6.59
			c-0.05,1.12,0.04,2.23,0.34,3.28c0.3,1.05,0.78,2.03,1.42,2.89c0.63,0.88,1.38,1.66,2.19,2.42c0.81,0.75,1.72,1.43,2.66,2.08
			l0.25,0.17l0.05,0.12c0.05,0.11,0.15,0.27,0.24,0.41c0.09,0.15,0.19,0.29,0.3,0.42c0.22,0.27,0.46,0.52,0.73,0.74
			c0.14,0.11,0.28,0.2,0.43,0.29c0.15,0.09,0.31,0.17,0.48,0.23c0.17,0.07,0.35,0.12,0.53,0.15c0.18,0.05,0.38,0.05,0.58,0.07
			l0.04,0.2c-0.19,0.06-0.39,0.16-0.61,0.19c-0.21,0.04-0.43,0.07-0.65,0.07c-0.22,0-0.44-0.03-0.67-0.07
			c-0.22-0.04-0.44-0.11-0.65-0.2c-0.42-0.17-0.81-0.4-1.16-0.68c-0.18-0.14-0.35-0.29-0.51-0.45c-0.17-0.16-0.3-0.31-0.47-0.54
			l0.3,0.29c-0.56-0.27-1.12-0.54-1.64-0.87c-0.53-0.33-1.06-0.67-1.55-1.07c-0.99-0.79-1.88-1.75-2.54-2.86
			c-1.35-2.23-1.83-4.92-1.5-7.39c0.32-2.49,1.24-4.8,2.45-6.88c1.22-2.08,2.67-4,4.36-5.7L166.38,74.47z"/>
	</g>
	<g id="XMLID_109_">
		<path id="XMLID_111_" class="st8" d="M168.9,79.69c-0.21,0.6-0.38,1.22-0.51,1.85c-0.14,0.62-0.25,1.25-0.32,1.88
			c-0.08,0.63-0.12,1.26-0.12,1.89c0.01,0.31-0.01,0.63,0.03,0.94l0.09,0.93l0.17,0.91c0.04,0.31,0.16,0.59,0.24,0.89
			c0.07,0.3,0.18,0.58,0.32,0.86c0.13,0.27,0.21,0.57,0.39,0.82l0.47,0.77c0.17,0.25,0.38,0.46,0.57,0.69l0.29,0.34l0.34,0.29
			l0.67,0.59l-0.19-0.11c0.87,0.3,1.78,0.57,2.67,0.76c0.44,0.09,0.89,0.16,1.3,0.19c0.2,0,0.4,0.01,0.56-0.02
			c0.1,0,0.13-0.03,0.19-0.04c0.07-0.01,0.02-0.04,0.05-0.02l-0.45,0.73l-0.01-0.95l-0.05-0.97c-0.04-0.64-0.12-1.28-0.22-1.89
			c-0.04-0.31-0.13-0.6-0.19-0.9c-0.09-0.28-0.16-0.57-0.29-0.82c-0.05-0.13-0.11-0.26-0.19-0.37c-0.07-0.11-0.12-0.25-0.21-0.33
			c-0.08-0.09-0.15-0.21-0.24-0.29c-0.09-0.07-0.19-0.15-0.28-0.24l-0.38-0.34l-0.03-0.19c-0.07-0.49-0.08-0.93-0.09-1.4
			c-0.01-0.46,0-0.92,0.05-1.39c0.08-0.92,0.26-1.87,0.73-2.68l0.19,0.07c-0.1,0.88-0.01,1.73,0.12,2.58
			c0.07,0.42,0.16,0.85,0.25,1.27c0.09,0.41,0.21,0.84,0.31,1.23l-0.41-0.54l0.58,0.34c0.19,0.12,0.33,0.28,0.5,0.42
			c0.17,0.14,0.28,0.31,0.42,0.48c0.14,0.17,0.24,0.34,0.34,0.52c0.22,0.35,0.36,0.71,0.51,1.08c0.13,0.36,0.24,0.73,0.32,1.1
			c0.17,0.73,0.26,1.47,0.28,2.19c0.01,0.36,0.01,0.73,0,1.09c-0.02,0.37-0.04,0.71-0.09,1.11l-0.07,0.55l-0.38,0.18
			c-0.2,0.09-0.46,0.21-0.62,0.23c-0.18,0.03-0.37,0.07-0.52,0.06c-0.32,0.01-0.6-0.02-0.88-0.06c-0.54-0.08-1.03-0.21-1.52-0.35
			c-0.97-0.29-1.88-0.62-2.81-1.02l-0.13-0.06l-0.05-0.05l-0.74-0.73l-0.37-0.37l-0.31-0.42c-0.2-0.28-0.42-0.55-0.6-0.85
			l-0.48-0.92c-0.17-0.3-0.25-0.64-0.38-0.95c-0.13-0.32-0.23-0.64-0.29-0.98c-0.06-0.33-0.17-0.66-0.2-0.99l-0.1-1l-0.01-1
			c-0.01-0.33,0.04-0.66,0.06-0.99c0.06-0.66,0.15-1.31,0.3-1.95c0.27-1.28,0.67-2.53,1.22-3.71L168.9,79.69z"/>
	</g>
	<path id="XMLID_108_" class="st13" d="M13.66,86.2"/>
	<path id="XMLID_107_" class="st13" d="M9.58,94.03"/>
	<g id="XMLID_104_">
		<path id="XMLID_178_" class="st8" d="M186.1,82.19c0,0-0.4,0.35-1.11,0.59c-0.35,0.13-0.78,0.22-1.25,0.25
			c-0.47,0-0.97-0.07-1.47-0.18c-0.25-0.04-0.49-0.11-0.73-0.2c-0.24-0.06-0.46-0.2-0.68-0.29c-0.21-0.11-0.4-0.26-0.58-0.39
			c-0.15-0.16-0.3-0.31-0.42-0.46c-0.1-0.16-0.18-0.31-0.26-0.45c-0.08-0.13-0.1-0.27-0.13-0.37c-0.06-0.2-0.1-0.32-0.1-0.32
			l0.1-0.03c0,0,0.06,0.1,0.16,0.28c0.06,0.08,0.1,0.2,0.19,0.31c0.09,0.1,0.2,0.22,0.31,0.34c0.13,0.1,0.28,0.2,0.43,0.31
			c0.18,0.07,0.34,0.18,0.54,0.24c0.2,0.05,0.39,0.13,0.62,0.16c0.21,0.04,0.43,0.07,0.66,0.07c0.44,0.03,0.9-0.05,1.31-0.07
			c0.42-0.03,0.82-0.01,1.17,0c0.7,0.02,1.21,0.11,1.21,0.11L186.1,82.19z"/>
	</g>
	<g id="XMLID_13_">
		<path id="XMLID_33_" class="st8" d="M116.31,100.42c-0.23,1.73-0.62,3.44-1.09,5.13c-0.23,0.85-0.51,1.68-0.79,2.51
			c-0.28,0.83-0.6,1.66-0.97,2.46c-0.71,1.62-1.55,3.21-2.66,4.67c-0.28,0.36-0.56,0.73-0.88,1.07c-0.31,0.35-0.65,0.68-1.02,0.98
			c-0.37,0.31-0.77,0.59-1.19,0.84l-0.66,0.35l-0.71,0.28l-0.55,0.21l-0.45-0.46c-0.29-0.29-0.51-0.55-0.75-0.83
			c-0.23-0.28-0.46-0.56-0.68-0.84c-0.43-0.57-0.83-1.16-1.21-1.77c-0.75-1.21-1.44-2.46-1.99-3.77c-0.28-0.65-0.53-1.32-0.77-1.98
			c-0.23-0.68-0.45-1.35-0.62-2.04c-0.34-1.37-0.6-2.77-0.73-4.17l-0.01-0.12l0.01-0.05c0.04-0.21,0.09-0.36,0.14-0.54
			c0.05-0.17,0.12-0.33,0.19-0.49c0.15-0.32,0.33-0.63,0.57-0.92c0.24-0.28,0.54-0.53,0.88-0.7c0.34-0.18,0.73-0.24,1.09-0.26
			l0.1-0.01l0.07,0.03c0.7,0.28,1.47,0.5,2.24,0.62c0.39,0.06,0.78,0.09,1.16,0.07c0.39-0.02,0.78-0.09,1.14-0.29
			c-0.63,0.52-1.52,0.68-2.34,0.69c-0.84,0.02-1.65-0.09-2.48-0.29l0.17,0.02c-0.51,0.09-0.89,0.37-1.17,0.78
			c-0.13,0.21-0.24,0.44-0.32,0.69c-0.04,0.12-0.08,0.25-0.1,0.38c-0.03,0.12-0.05,0.28-0.05,0.37l0-0.17
			c0.27,1.32,0.6,2.62,1.03,3.89c0.21,0.63,0.44,1.27,0.68,1.88c0.26,0.63,0.52,1.23,0.82,1.83c0.59,1.2,1.21,2.37,1.94,3.48
			c0.36,0.56,0.75,1.1,1.15,1.62c0.2,0.26,0.4,0.52,0.61,0.78c0.2,0.25,0.43,0.51,0.62,0.71l-0.99-0.24l0.5-0.19l0.49-0.25
			c0.32-0.19,0.64-0.4,0.94-0.65c0.3-0.25,0.6-0.5,0.88-0.79c0.29-0.28,0.56-0.58,0.82-0.9c0.53-0.62,1.01-1.31,1.46-2.01
			c0.46-0.7,0.89-1.43,1.3-2.18C113.77,106.88,115.09,103.68,116.31,100.42z"/>
	</g>
	<path id="XMLID_102_" class="st14" d="M103.77,105.6"/>
	<g id="XMLID_99_">
		<path id="XMLID_101_" class="st8" d="M103.77,115.15c0,0,0.5-0.41,1.24-1.08c0.74-0.66,1.69-1.58,2.58-2.56
			c0.89-0.98,1.7-2.02,2.2-2.88c0.14-0.21,0.22-0.42,0.32-0.6c0.1-0.18,0.17-0.34,0.21-0.48c0.1-0.27,0.16-0.43,0.16-0.43
			s-0.05,0.16-0.12,0.44c-0.04,0.14-0.09,0.31-0.17,0.5c-0.08,0.19-0.15,0.41-0.27,0.63c-0.42,0.91-1.15,2.05-1.95,3.13
			c-1.61,2.16-3.54,4.06-3.54,4.06c-0.2,0.2-0.51,0.19-0.71,0s-0.19-0.51,0-0.71C103.74,115.18,103.76,115.16,103.77,115.15z"/>
	</g>
	<g id="XMLID_96_">
		<path id="XMLID_98_" class="st8" d="M101.06,108.9c0.02,0,0.08,0.03,0.28,0.06c0.2,0.03,0.49,0.05,0.84,0.04
			c0.35-0.03,0.78-0.07,1.21-0.21c0.44-0.12,0.9-0.31,1.34-0.55c0.21-0.13,0.44-0.24,0.64-0.39c0.2-0.15,0.41-0.27,0.59-0.43
			c0.37-0.29,0.7-0.6,0.97-0.87c0.28-0.26,0.47-0.52,0.63-0.69c0.15-0.17,0.23-0.27,0.23-0.27s-0.07,0.11-0.2,0.29
			c-0.13,0.18-0.29,0.47-0.54,0.76c-0.24,0.31-0.53,0.66-0.87,1.01c-0.16,0.19-0.37,0.34-0.56,0.52c-0.19,0.18-0.41,0.32-0.62,0.49
			c-0.43,0.31-0.9,0.57-1.37,0.77c-0.47,0.2-0.94,0.32-1.34,0.4c-0.41,0.07-0.77,0.08-1.02,0.08c-0.25-0.01-0.44-0.04-0.42-0.04
			L101.06,108.9z"/>
	</g>
	<g id="XMLID_10_">
		<path id="XMLID_35_" class="st8" d="M76.51,97.05c-0.53,1.06-1.14,2.09-1.81,3.07c-0.67,0.99-1.39,1.94-2.17,2.86
			c-0.38,0.46-0.78,0.91-1.2,1.34c-0.42,0.43-0.84,0.86-1.28,1.28c-0.44,0.42-0.89,0.82-1.37,1.2c-0.46,0.4-0.97,0.74-1.46,1.11
			l0.16-0.14c-0.61,0.66-1.22,1.26-1.93,1.82c-0.35,0.28-0.73,0.55-1.16,0.8c-0.22,0.12-0.46,0.24-0.75,0.34
			c-0.31,0.08-0.6,0.2-1.21,0.05c0.05,0.03-0.4-0.15-0.47-0.25c-0.14-0.12-0.24-0.25-0.32-0.37c-0.14-0.24-0.19-0.43-0.23-0.6
			c-0.07-0.33-0.07-0.58-0.07-0.83c0-0.48,0.04-0.91,0.08-1.34c0.08-0.85,0.18-1.66,0.24-2.48l0.04,0.36
			c-0.15-0.46-0.34-0.98-0.54-1.46c-0.2-0.49-0.43-0.97-0.65-1.46c-0.46-0.96-0.97-1.89-1.56-2.78c-0.3-0.44-0.59-0.88-0.92-1.29
			c-0.33-0.41-0.66-0.82-1.03-1.2l-0.26-0.28c-0.13-0.12-0.23-0.24-0.34-0.37c-0.21-0.27-0.4-0.56-0.51-0.96
			c-0.12-0.38-0.05-0.95,0.24-1.29c0.27-0.34,0.6-0.5,0.89-0.63l0.37-0.02c-0.14-0.04-0.08-0.01-0.1-0.02c0,0,0,0,0.01,0l0.06,0
			l0.14,0l0.3-0.01l0.62-0.05l1.26-0.14l2.54-0.29c-0.8,0.3-1.61,0.58-2.43,0.84c-0.41,0.13-0.82,0.25-1.24,0.36l-0.63,0.16
			l-0.33,0.07l-0.18,0.03l-0.1,0.01l-0.07,0c-0.04-0.01-0.01,0.02-0.18-0.02l0.37-0.02c-0.2,0.11-0.36,0.25-0.41,0.36
			c-0.05,0.11-0.04,0.15,0.02,0.29c0.06,0.13,0.19,0.3,0.34,0.45c0.08,0.07,0.17,0.15,0.25,0.21l0.34,0.29
			c0.44,0.38,0.85,0.79,1.25,1.21c0.39,0.43,0.77,0.86,1.12,1.32c0.69,0.92,1.3,1.9,1.85,2.91c0.27,0.5,0.52,1.02,0.75,1.55
			l0.33,0.8c0.11,0.27,0.21,0.53,0.31,0.84l0.05,0.16l-0.01,0.2c-0.05,0.86-0.13,1.71-0.21,2.53c-0.04,0.41-0.08,0.81-0.08,1.17
			c0,0.17,0.01,0.34,0.02,0.42c0,0.04,0.02,0.05-0.02-0.01c-0.02-0.03-0.06-0.08-0.12-0.13c-0.03-0.02-0.06-0.05-0.14-0.09
			c-0.02-0.01-0.1-0.03-0.08-0.03l0.04,0.01c-0.2-0.04-0.06,0,0.03-0.05c0.11-0.03,0.25-0.1,0.4-0.17c0.3-0.16,0.61-0.38,0.91-0.61
			c0.6-0.48,1.23-1.02,1.78-1.57l0.08-0.08l0.08-0.05c0.47-0.32,0.96-0.61,1.41-0.96c0.47-0.33,0.92-0.68,1.37-1.03
			c0.91-0.71,1.77-1.48,2.63-2.26C73.33,100.54,74.96,98.85,76.51,97.05z"/>
	</g>
	<g id="XMLID_90_">
		<polygon id="XMLID_151_" class="st8" points="57.96,96.55 62.07,96.13 58.64,98.43 		"/>
	</g>
	<path id="XMLID_89_" class="st15" d="M61.21,101.39"/>
	<g id="XMLID_82_">
		<polygon id="XMLID_95_" class="st8" points="60.78,100.49 67.55,98.35 61.64,102.29 		"/>
	</g>
	<path id="XMLID_79_" class="st15" d="M62.07,104.98"/>
	<g id="XMLID_76_">
		<polygon id="XMLID_92_" class="st8" points="61.74,104.13 70.57,99.87 62.79,105.83 		"/>
	</g>
	<g id="XMLID_73_">
		<path id="XMLID_162_" class="st8" d="M44.2,90.97c0,0,1.21-0.57,3.03-1.28c1.83-0.72,4.3-1.58,6.83-2.23
			c0.63-0.18,1.27-0.3,1.9-0.45c0.63-0.14,1.26-0.23,1.86-0.35c0.6-0.09,1.2-0.15,1.75-0.23c0.56-0.03,1.09-0.07,1.58-0.1
			c0.49-0.02,0.94,0.01,1.33,0.02c0.4-0.01,0.74,0.05,1.02,0.09c0.56,0.07,0.88,0.11,0.88,0.11s-0.32-0.01-0.89-0.03
			c-0.28-0.01-0.62-0.03-1.01,0.01c-0.39,0.03-0.83,0.05-1.31,0.11c-0.47,0.08-0.99,0.16-1.53,0.24c-0.54,0.12-1.11,0.24-1.69,0.39
			c-0.58,0.17-1.18,0.32-1.78,0.51c-0.6,0.2-1.21,0.38-1.81,0.62c-2.4,0.88-4.73,1.95-6.44,2.82c-1.72,0.87-2.79,1.51-2.79,1.51
			L44.2,90.97z"/>
	</g>
	<g id="XMLID_69_">
		<path id="XMLID_72_" class="st8" d="M66.42,90.65c0,0,4.71,0.82,11.76,2.05c3.53,0.62,7.65,1.28,12.07,2
			c4.42,0.72,9.13,1.44,13.86,2.08c4.72,0.68,9.45,1.28,13.9,1.72c2.22,0.21,4.37,0.41,6.42,0.56c2.04,0.14,3.98,0.25,5.76,0.29
			c1.79,0.04,3.42,0.04,4.87-0.01c1.45-0.05,2.71-0.18,3.74-0.3c1.02-0.18,1.84-0.29,2.37-0.47c0.54-0.15,0.83-0.22,0.83-0.22
			s-0.28,0.1-0.81,0.28c-0.52,0.21-1.33,0.39-2.35,0.61c-1.03,0.17-2.29,0.36-3.75,0.48c-1.46,0.12-3.1,0.2-4.9,0.2
			c-1.8,0.01-3.74-0.04-5.8-0.12c-2.06-0.09-4.22-0.22-6.46-0.43c-4.47-0.4-9.22-0.95-13.96-1.6c-4.73-0.68-9.45-1.45-13.87-2.22
			c-4.42-0.76-8.51-1.6-12.03-2.31c-3.51-0.71-6.42-1.39-8.46-1.84C67.58,90.93,66.42,90.65,66.42,90.65z"/>
	</g>
	<g id="XMLID_6_">
		<path id="XMLID_84_" class="st8" d="M143.96,103.14c0,0,0.8-0.53,2.01-1.17c1.23-0.64,2.91-1.41,4.68-1.95
			c0.44-0.14,0.89-0.24,1.33-0.36c0.45-0.09,0.88-0.18,1.31-0.24c0.43-0.04,0.84-0.1,1.24-0.12c0.4,0,0.77-0.02,1.11-0.01
			c0.34,0.03,0.65,0.06,0.93,0.09c0.28,0.02,0.51,0.1,0.7,0.14c0.39,0.09,0.61,0.14,0.61,0.14s-0.22-0.03-0.62-0.07
			c-0.2-0.01-0.43-0.07-0.71-0.06c-0.27,0-0.58,0.01-0.92,0.01c-0.33,0.03-0.7,0.08-1.08,0.12c-0.38,0.06-0.77,0.16-1.18,0.24
			c-0.4,0.11-0.82,0.24-1.23,0.36c-0.41,0.16-0.83,0.3-1.24,0.48c-1.64,0.69-3.18,1.59-4.28,2.33c-1.11,0.75-1.77,1.29-1.77,1.29
			c-0.32,0.26-0.79,0.22-1.06-0.1c-0.26-0.32-0.22-0.79,0.1-1.06C143.91,103.17,143.93,103.16,143.96,103.14L143.96,103.14z"/>
	</g>
	<g id="XMLID_3_">
		<path id="XMLID_78_" class="st8" d="M141.64,107.93c0,0,2.7-1.31,5.46-2.46c1.38-0.58,2.78-1.12,3.86-1.44
			c0.27-0.09,0.52-0.14,0.74-0.2c0.22-0.06,0.42-0.07,0.59-0.1c0.16-0.04,0.3,0,0.38,0c0.09,0.01,0.13,0.01,0.13,0.01
			s-0.05,0-0.13,0.01c-0.09,0.01-0.21-0.01-0.37,0.04c-0.16,0.05-0.35,0.08-0.56,0.17c-0.21,0.08-0.45,0.16-0.7,0.28
			c-1.02,0.45-2.32,1.15-3.61,1.89c-2.57,1.48-5.06,3.1-5.06,3.1c-0.35,0.23-0.81,0.13-1.04-0.22c-0.23-0.35-0.13-0.81,0.22-1.04
			C141.58,107.96,141.61,107.94,141.64,107.93z"/>
	</g>
	<path id="XMLID_2_" class="st8" d="M41.63,89.01c-0.04-0.07-0.08-0.13-0.11-0.19c-0.02-0.26-0.16-0.54-0.45-0.58
		c-0.05-0.01-0.38-0.11-0.47-0.13c-0.23-0.06-0.48-0.06-0.72-0.02c-0.15,0.01-0.67,0.21-0.77,0.3c-0.41,0.25-0.58,0.55-0.84,0.97
		c-0.15,0.25-0.2,0.64,0.08,0.77c0.63,0.3,1.28,0.72,1.98,0.53c0.24,0.01,0.46-0.09,0.62-0.26c0.18-0.18,0.27-0.41,0.33-0.65
		c0.09-0.18,0.1-0.2,0.15-0.4C41.53,89.41,41.67,89.1,41.63,89.01z"/>
	<g id="XMLID_303_">
		<path id="XMLID_310_" class="st8" d="M179.49,72.14c0,0,0.03,0.59-0.15,1.16c-0.08,0.3-0.21,0.6-0.41,0.87
			c-0.21,0.26-0.56,0.44-0.79,0.72c-0.48,0.54-0.91,1.11-1.13,1.61c-0.1,0.25-0.18,0.47-0.2,0.63c-0.03,0.17-0.05,0.26-0.05,0.26
			l-0.2,0.04c0,0-0.04-0.1-0.11-0.27c-0.04-0.09-0.08-0.2-0.09-0.33c-0.02-0.13-0.05-0.28-0.06-0.45c-0.02-0.33,0-0.72,0.09-1.12
			c0.08-0.4,0.22-0.82,0.39-1.21c0.17-0.39,0.28-0.83,0.51-1.16c0.24-0.31,0.56-0.53,0.87-0.66c0.6-0.29,1.2-0.24,1.2-0.24
			L179.49,72.14z"/>
	</g>
	<path id="XMLID_113_" class="st8" d="M173.15,74.51c-0.02-0.04-0.05-0.08-0.07-0.11c-0.01-0.16-0.1-0.33-0.27-0.35
		c-0.03,0-0.23-0.07-0.28-0.08c-0.14-0.04-0.29-0.04-0.44-0.01c-0.09,0-0.41,0.13-0.47,0.18c-0.25,0.15-0.35,0.33-0.51,0.59
		c-0.09,0.15-0.12,0.39,0.05,0.47c0.38,0.18,0.77,0.44,1.2,0.32c0.15,0,0.28-0.06,0.38-0.16c0.11-0.11,0.17-0.25,0.2-0.4
		c0.05-0.11,0.06-0.12,0.09-0.24C173.09,74.75,173.18,74.56,173.15,74.51z"/>
	<g id="XMLID_160_">
		<path id="XMLID_318_" class="st8" d="M56.47,73.42c0,0-1.43,0.79-3.7,1.59c-1.13,0.41-2.48,0.82-3.94,1.15
			c-0.74,0.14-1.5,0.3-2.28,0.41c-0.78,0.11-1.57,0.25-2.37,0.34c-1.59,0.22-3.19,0.39-4.69,0.48c-0.75,0.06-1.48,0.07-2.17,0.08
			c-0.69,0.02-1.35-0.03-1.95-0.06c-0.6-0.01-1.15-0.1-1.64-0.16c-0.49-0.05-0.91-0.12-1.25-0.21c-0.68-0.16-1.07-0.25-1.07-0.25
			l0.04-0.15c0,0,0.39,0.05,1.08,0.15c0.34,0.06,0.76,0.09,1.24,0.09c0.48,0.01,1.02,0.05,1.61,0c0.59-0.03,1.23-0.04,1.91-0.12
			c0.68-0.08,1.39-0.12,2.12-0.24c1.47-0.19,3.03-0.47,4.57-0.8c1.55-0.32,3.07-0.75,4.52-1.09c1.45-0.33,2.81-0.58,3.98-0.79
			c2.35-0.42,3.96-0.57,3.96-0.57L56.47,73.42z"/>
	</g>
	<path id="XMLID_4_" class="st8" d="M49.74,80.23c-0.02-0.04-0.05-0.08-0.07-0.11c-0.01-0.16-0.1-0.33-0.27-0.35
		c-0.03,0-0.23-0.07-0.28-0.08c-0.14-0.04-0.29-0.04-0.44-0.01c-0.09,0-0.41,0.13-0.47,0.18c-0.25,0.15-0.35,0.33-0.51,0.59
		c-0.09,0.15-0.12,0.39,0.05,0.47c0.38,0.18,0.77,0.44,1.2,0.32c0.15,0,0.28-0.06,0.38-0.16c0.11-0.11,0.17-0.25,0.2-0.4
		c0.05-0.11,0.06-0.12,0.09-0.24C49.68,80.47,49.77,80.28,49.74,80.23z"/>
</g>
</svg>
