<?xml version="1.0" encoding="utf-8"?>
<!-- Generator: Adobe Illustrator 23.0.1, SVG Export Plug-In . SVG Version: 6.00 Build 0)  -->
<svg version="1.1" id="Layer_1" xmlns="http://www.w3.org/2000/svg" xmlns:xlink="http://www.w3.org/1999/xlink" x="0px" y="0px"
	 viewBox="0 0 30 30" style="enable-background:new 0 0 30 30;" xml:space="preserve">
<style type="text/css">
	.st0{fill:#FFFFFF;}
</style>
<g>
	<path class="st0" d="M23,20.2c-0.2,0-0.4,0.1-0.5,0.2c-0.1,0.1-0.2,0.4-0.2,0.7v0.8h1.3v-0.8c0-0.3-0.1-0.6-0.2-0.7
		C23.4,20.3,23.3,20.2,23,20.2z"/>
	<g>
		<path class="st0" d="M17.8,20.2c-0.1,0-0.2,0-0.3,0.1c-0.1,0.1-0.2,0.1-0.3,0.2v4.8c0.1,0.1,0.2,0.2,0.4,0.3
			c0.1,0.1,0.2,0.1,0.4,0.1c0.2,0,0.3-0.1,0.4-0.2c0.1-0.1,0.1-0.3,0.1-0.5v-4c0-0.3-0.1-0.5-0.2-0.6C18.2,20.2,18,20.2,17.8,20.2z"
			/>
		<g>
			<path class="st0" d="M24.5,14h-19c-3,0-5.5,2.8-5.5,5.9v4.5C0,27.5,2.5,30,5.5,30h19c3,0,5.5-2.5,5.5-5.6v-4.5
				C30,16.8,27.5,14,24.5,14z M9.5,17.8H7.7v9H6v-9H4.2v-1.5h5.2V17.8z M14.5,26.8H13v-0.9c-0.3,0.3-0.6,0.6-0.9,0.7
				c-0.3,0.2-0.6,0.2-0.9,0.2c-0.4,0-0.6-0.1-0.8-0.3c-0.2-0.2-0.3-0.6-0.3-1V19h1.5v6c0,0.2,0,0.3,0.1,0.4c0.1,0.1,0.2,0.1,0.3,0.1
				c0.1,0,0.3-0.1,0.4-0.2c0.2-0.1,0.3-0.2,0.5-0.4V19h1.5V26.8z M20,25.2c0,0.5-0.1,1-0.4,1.3c-0.2,0.3-0.6,0.4-1,0.4
				c-0.3,0-0.6-0.1-0.8-0.2c-0.2-0.1-0.4-0.3-0.6-0.5v0.6h-1.5V16.3h1.5v3.4c0.2-0.2,0.4-0.4,0.7-0.5c0.2-0.1,0.5-0.2,0.7-0.2
				c0.5,0,0.8,0.2,1.1,0.5c0.3,0.3,0.4,0.8,0.4,1.5V25.2z M25.2,23.1h-2.9v1.5c0,0.4,0,0.7,0.1,0.9c0.1,0.2,0.3,0.2,0.5,0.2
				c0.3,0,0.4-0.1,0.5-0.2c0.1-0.1,0.2-0.4,0.2-0.9v-0.4h1.6v0.4c0,0.8-0.2,1.4-0.6,1.8C24.3,26.8,23.7,27,23,27
				c-0.7,0-1.2-0.2-1.6-0.6c-0.4-0.4-0.6-1-0.6-1.8v-3.5c0-0.7,0.2-1.2,0.6-1.6c0.4-0.4,1-0.6,1.7-0.6c0.7,0,1.2,0.2,1.6,0.6
				c0.4,0.4,0.6,1,0.6,1.7V23.1z"/>
			<polygon class="st0" points="5.7,0 8,7 8,11.6 9.9,11.6 9.9,6.8 12.1,0 10.2,0 9,4.6 8.9,4.6 7.6,0 			"/>
			<path class="st0" d="M13,3.4c-0.5,0.4-0.7,0.9-0.7,1.6v4.4c0,0.7,0.2,1.3,0.7,1.7c0.5,0.4,1,0.6,1.8,0.6c0.8,0,1.4-0.2,1.8-0.6
				c0.4-0.4,0.7-1,0.7-1.7V5c0-0.7-0.2-1.2-0.7-1.6c-0.5-0.4-1-0.6-1.7-0.6C14,2.8,13.4,3,13,3.4z M15.5,4.9v4.7
				c0,0.2-0.1,0.4-0.2,0.5c-0.1,0.1-0.3,0.2-0.6,0.2c-0.2,0-0.4-0.1-0.5-0.2C14.1,10,14,9.8,14,9.6V4.9c0-0.2,0.1-0.3,0.2-0.5
				c0.1-0.1,0.3-0.2,0.5-0.2c0.2,0,0.4,0.1,0.5,0.2C15.4,4.6,15.5,4.7,15.5,4.9z"/>
			<path class="st0" d="M23.5,11.6V3h-1.7v6.5c-0.2,0.2-0.3,0.3-0.5,0.5c-0.2,0.1-0.4,0.2-0.5,0.2c-0.2,0-0.3,0-0.3-0.1
				c-0.1-0.1-0.1-0.2-0.1-0.4V3h-1.7v7.1c0,0.5,0.1,0.9,0.3,1.1c0.2,0.3,0.5,0.4,0.9,0.4c0.3,0,0.7-0.1,1-0.3c0.3-0.2,0.7-0.4,1-0.8
				v0.9H23.5z"/>
		</g>
	</g>
</g>
</svg>
